<?xml version="1.0" standalone="no"?>
<!DOCTYPE svg PUBLIC "-//W3C//DTD SVG 1.1//EN" "http://www.w3.org/Graphics/SVG/1.1/DTD/svg11.dtd" >
<svg xmlns="http://www.w3.org/2000/svg" xmlns:xlink="http://www.w3.org/1999/xlink" version="1.1">
<metadata>
Created by FontForge 20170731 at Thu Nov 26 02:17:33 1992
 By Aleksey,,,
Copyright (c) 1992 Image Club Graphics, Inc.
</metadata>
<defs>
<font id="ZapfMedium" horiz-adv-x="548" >
  <font-face 
    font-family="Zapf"
    font-weight="5"
    font-stretch="normal"
    units-per-em="1062"
    panose-1="0 0 0 0 0 0 0 0 0 0"
    ascent="849"
    descent="-213"
    x-height="554"
    cap-height="769"
    bbox="-61 -303 1250 1107"
    underline-thickness="20"
    underline-position="-224"
    unicode-range="U+0020-25CA"
  />
<missing-glyph horiz-adv-x="769" 
d="M48 0v769h673v-769h-673zM673 48v673h-577v-673h577z" />
    <glyph glyph-name=".notdef" horiz-adv-x="769" 
d="M48 0v769h673v-769h-673zM673 48v673h-577v-673h577z" />
    <glyph glyph-name=".null" unicode="&#xd7;" horiz-adv-x="0" 
 />
    <glyph glyph-name=".null" unicode="&#x141;" horiz-adv-x="0" 
 />
    <glyph glyph-name=".null" unicode="&#xfd;" horiz-adv-x="0" 
 />
    <glyph glyph-name="nonmarkingreturn" horiz-adv-x="314" 
 />
    <glyph glyph-name="space" unicode=" " horiz-adv-x="314" 
 />
    <glyph glyph-name="exclam" unicode="!" horiz-adv-x="231" 
d="M190 561q-6 -49 -22 -123.5t-22.5 -113.5t-8.5 -62.5t-2 -51.5v-18h-31v24q0 13 -1.5 37t-5.5 56q-9 85 -19 142q-19 105 -19 122v50q0 48 3 73t14 39q26 36 57 36q13 0 31.5 -11t24.5 -29t8 -35.5t2 -37.5q0 -17 -3.5 -48t-5.5 -49zM204 62q0 -37 -25.5 -58.5
t-62.5 -21.5t-58 20t-21 61q0 32 23 52t61 20t60.5 -18.5t22.5 -54.5z" />
    <glyph glyph-name="quotedbl" unicode="&#x22;" horiz-adv-x="249" 
d="M114 756q2 -8 2 -15q0 -23 -17 -116t-17 -130v-18h-17v18q0 22 -8 80q-18 131 -18 157v13q2 7 2 10q4 18 18 28t21 9q15 -1 22 -9.5t12 -26.5zM213 753q2 -14 2 -22q0 -27 -11 -80q-25 -121 -25 -152v-22h-16v22q0 19 -13 108t-13 123q0 15 2.5 28.5t18.5 24.5q11 7 20 7
q17 -2 24 -9.5t11 -27.5z" />
    <glyph glyph-name="numbersign" unicode="#" horiz-adv-x="652" 
d="M628 530q-2 -5 -3 -7q-11 -21 -12 -25l-5 -36h-107l-37 -133h116q-6 -11 -8 -16q-9 -19 -10 -25q-1 -4 -1 -8v-11v-10v-2h-113l-56 -204l-35 5l-40 -5l56 203h-145l-54 -201l-49 4q-6 0 -16 -2q-3 0 -9 -2l53 201h-113l11 30l11 37h106l41 137h-121l15 38l9 30h111
l64 242l24 -4l50 4l-64 -240h146l68 241l24 -5l46 5l-64 -241h111zM431 460h-147l-40 -135h147z" />
    <glyph glyph-name="dollar" unicode="$" horiz-adv-x="655" 
d="M623 230q0 -101 -77 -170t-182 -69l-21 -1l-1 -115q-10 8 -21 8q-12 1 -24 -9l1 112h-22q-15 0 -44.5 4.5t-56.5 10.5q-56 13 -89 42q-37 32 -43 82q-1 5 -1 15q0 30 17.5 50.5t46.5 20.5q30 0 48.5 -9.5t22.5 -36.5q2 -32 4 -63q4 -32 26 -51q15 -13 37 -19.5t38 -6.5
l16 -1v316l-28 13q-106 47 -150 91q-63 62 -63 160q0 93 74 140q54 34 152 46l17 2l-1 90q10 -11 23 -10q7 1 14 6q4 3 8 7v-93l11 -1q24 0 52.5 -3t65 -9.5t62.5 -21.5q35 -20 45 -56q3 -12 3 -25q0 -29 -15 -49t-42 -20q-7 -1 -10 -1q-55 0 -63 46t-10 53q-7 21 -26 35
q-13 9 -27.5 12.5t-32.5 3.5l-15 1l-1 -262l28 -10q158 -58 208 -118q46 -55 46 -137zM300 511v249l-23 -3q-49 -6 -76 -40t-27 -77t30 -74q26 -26 74 -46zM500 178q0 47 -30.5 79.5t-81.5 50.5l-46 17v-301l18 1q62 0 101 46t39 107z" />
    <glyph glyph-name="percent" unicode="%" horiz-adv-x="822" 
d="M664 784l-213 -368l-250 -501l-33 48l273 504l133 243q-32 -6 -60 -10t-60 -4q-19 0 -42.5 1t-29.5 1l8 -21q18 -44 18 -86v-16q-2 -12 -2 -18q-10 -82 -51 -123q-49 -48 -146 -48q-89 0 -132 52q-38 46 -38 124q0 86 39 138q45 60 138 60q20 0 40 -3t44 -6q10 -1 21 2
q53 -24 106 -24q21 0 58.5 3.5t72 22.5t61.5 51q5 -11 18 -17q3 -1 11 -3t16 -2zM791 195q0 -85 -45 -134q-49 -54 -142 -54q-87 0 -130 42.5t-43 135.5q0 91 46 142t136 51q95 0 136.5 -40.5t41.5 -142.5zM317 579q0 72 -16 105q-21 44 -77 44q-52 0 -77 -50
q-20 -40 -20 -105q0 -74 17 -110q22 -46 72 -46q57 0 82 53q19 40 19 109zM704 197q0 92 -22 119t-71 27q-50 0 -72 -54q-17 -42 -17 -114q0 -63 17 -95q22 -41 71 -41q51 0 75 52q19 41 19 106z" />
    <glyph glyph-name="ampersand" unicode="&#x26;" horiz-adv-x="1127" 
d="M1091 191q0 -54 -27 -90q-4 -5 -49.5 -48t-101.5 -59q-41 -12 -104 -12q-49 0 -95 18q-35 14 -78 44l-46 33l-58 -35q-96 -58 -247 -58q-104 0 -173 60q-74 64 -74 170q0 92 63 160q55 60 152 96l30 12l-24 66q-11 29 -11 64q0 57 29.5 101t75 64t96.5 20q74 0 113 -12
q63 -20 76 -74q3 -12 3 -23q0 -56 -87 -109q-63 -35 -93 -52l-30 -17q26 -47 49 -81.5t56.5 -80t68.5 -85.5l60 -66q20 23 35 62t15 83q0 13 -1 20q-5 51 -43 94h-125l2 21l-1 21l187 -3l184 3l-3 -23v-22h-120l6 -27q3 -14 3 -25q0 -8 -4 -32q-10 -46 -41 -99
q-18 -30 -47 -68l-21 -27l35 -31q26 -23 49 -40q30 -21 61 -35q25 -11 47.5 -18t42.5 -7q17 0 30.5 6.5t22 21t8.5 30.5q0 10 -9 46q-5 20 -5 34q0 26 19 44t46 18q23 0 38 -15t15 -38zM535 684q0 37 -23.5 58.5t-62.5 21.5q-32 0 -55 -23t-23 -56q0 -28 4 -49t16 -50
l23 -51l57 36q64 40 64 113zM564 101q-56 51 -95 96t-80 104q-28 40 -49 76.5t-41 76.5q-57 -30 -87 -86t-30 -118q0 -13 1 -19q0 -73 45.5 -123.5t119.5 -63.5q20 -3 38 -3q37 0 74.5 11.5t72.5 31.5z" />
    <glyph glyph-name="quotesingle" unicode="'" horiz-adv-x="134" 
d="M109 756q2 -8 2 -15q0 -23 -17 -116t-17 -130v-18h-17v18q0 22 -8 80q-18 131 -18 157v13q2 7 2 10q4 18 18 28t21 9q15 -1 22 -9.5t12 -26.5z" />
    <glyph glyph-name="parenleft" unicode="(" horiz-adv-x="244" 
d="M220 -157l-21 -19l-56 89q-34 56 -49 86q-30 59 -36 94q-9 54 -11.5 103.5t-2.5 132.5q0 119 7 162.5t27 94.5q15 38 41 84q19 33 46 74l24 35l25 -10l-22 -39q-13 -25 -29 -63q-22 -51 -28 -81q-9 -46 -12.5 -114.5t-3.5 -162.5q0 -51 0.5 -119.5t12.5 -132.5
q8 -41 30 -96q17 -42 39 -83z" />
    <glyph glyph-name="parenright" unicode=")" horiz-adv-x="255" 
d="M220 280v-36q0 -59 -2 -84q-5 -68 -32 -136q-16 -41 -41 -85q-15 -26 -47 -73l-23 -35l-25 9l21 39q11 19 29 63q22 53 28 81q10 46 13.5 112.5t3.5 164.5v36q0 70 -2.5 119.5t-10.5 93.5t-30 99q-17 42 -39 83l-20 35l22 19l55 -89q38 -60 60 -107t26 -72q8 -49 11 -109
t3 -128z" />
    <glyph glyph-name="asterisk" unicode="*" horiz-adv-x="392" 
d="M356 580q-2 -2 -12.5 -5t-18.5 -2q-5 1 -16.5 8t-17.5 12l-62 47q-9 7 -11 6q0 -5 1 -12t1 -12l9 -64q1 -12 3 -24t0 -16q-2 -7 -13.5 -15.5t-15.5 -7.5q-5 0 -15 8t-12 14l1 34l7 75q0 23 -1 23q-11 -7 -17 -11l-59 -43q-10 -7 -18 -13.5t-15 -8.5q-10 -3 -22 1t-15 8
q-1 4 1.5 15.5t6.5 20.5q2 3 15 9t25 11l71 29q12 5 13 8q0 3 -7 7q-11 4 -15 6l-61 27q-9 4 -17.5 8.5t-12.5 8.5q-1 1 -4 12t-1 17q1 4 14 8t22 2q6 -2 12.5 -6t22.5 -16l50 -38q11 -9 15 -9q3 1 1.5 9.5t-1.5 11.5l-5 54l-3 41q0 10 10.5 19.5t16.5 11.5q4 0 15.5 -8.5
t12.5 -15.5q2 -7 0 -17t-3 -17l-12 -72l-1 -15q2 -3 9.5 3t16.5 13l58 43q13 10 24 11q9 1 18.5 -2t11.5 -7q2 -5 0 -16t-8 -18t-27 -14l-64 -27q-11 -5 -17.5 -8t-7.5 -7q-1 -3 8 -6.5t20 -7.5l71 -33q7 -3 10 -4q6 -3 8 -5q5 -5 7 -13t2 -16t-2 -10z" />
    <glyph glyph-name="plus" unicode="+" horiz-adv-x="603" 
d="M572 244h-239v-245h-60v245h-239v60h237v242h59v-242h242v-60z" />
    <glyph glyph-name="comma" unicode="," horiz-adv-x="209" 
d="M165 -1q-5 -22 -23 -46q-11 -16 -40 -47q-5 -6 -46 -50q-21 -23 -60 -67l-17 -19l-33 11l14 19q20 26 39 51q28 40 36 64q3 10 4 28.5t1 21.5q0 10 -1 37.5t-1 43.5q0 52 4 72q9 45 57 45q27 0 42.5 -4.5t21.5 -23.5q10 -29 10 -70q0 -32 -8 -66z" />
    <glyph glyph-name="hyphen" unicode="-" horiz-adv-x="381" 
d="M350 215q-12 1 -61 2t-82 1l-171 -3l1 57l-3 52l156 -3l160 1q-3 -16 -3 -22q-1 -8 -1 -22t2 -38t2 -25z" />
    <glyph glyph-name="period" unicode="." horiz-adv-x="241" 
d="M210 81q0 -37 -23.5 -60.5t-64.5 -23.5q-40 0 -62 21t-22 60q0 36 22.5 58.5t61.5 22.5q42 0 65 -18.5t23 -59.5z" />
    <glyph glyph-name="slash" unicode="/" horiz-adv-x="568" 
d="M551 863q-46 -84 -87 -161q-36 -68 -71 -136q-77 -147 -80 -153q-51 -99 -88 -172.5t-80 -159.5q-16 -33 -85 -174q-5 18 -16 23t-20 5q-3 0 -9 -2l292 552q50 94 98 188q44 85 102 202q5 -7 14.5 -11t15.5 -4t14 3z" />
    <glyph glyph-name="zero" unicode="0" horiz-adv-x="651" 
d="M615 415q0 -149 -13 -214q-21 -105 -89 -161q-34 -28 -82 -40.5t-106 -12.5q-68 0 -125.5 17.5t-83.5 46.5q-49 56 -66 134q-12 56 -12 163q0 96 14 167.5t52 128.5q32 49 94 73t135 24q56 0 105 -13t83 -38q57 -41 78 -117q16 -57 16 -158zM469 380q0 150 -20 216
q-32 105 -123 105q-86 0 -118 -113q-21 -73 -21 -217q0 -117 3 -153q7 -90 33 -135q33 -57 100 -57q68 0 103 58q29 48 38 138q5 50 5 158z" />
    <glyph glyph-name="one" unicode="1" horiz-adv-x="600" 
d="M571 0l-204 2l-236 -2q3 11 3 19l-3 22h89l57 3v589l-102 -52l-121 -58l-19 26q41 20 70 35.5t106 60.5q31 17 52.5 31t71.5 50l47 -3q34 0 49 3v-682l56 -3h84l-3 -22q0 -8 3 -19z" />
    <glyph glyph-name="two" unicode="2" horiz-adv-x="636" 
d="M612 271l-6 -44q-9 -75 -17 -150q-6 -35 -15 -49q-19 -29 -61 -39q-25 -6 -71 -6q-56 0 -189 23q-64 11 -104 11q-28 0 -50 -7.5t-31 -25.5l-7 -15l-25 21l10 28q22 61 57 114q31 47 75 94.5t90 96.5q84 88 106.5 132.5t22.5 97.5q0 67 -15 98q-22 45 -79 45
q-49 0 -68 -38q-14 -27 -14 -79q0 -23 -22.5 -38.5t-50.5 -15.5q-5 0 -15 2q-23 5 -38 24t-15 45q0 45 31.5 75.5t81.5 45.5q28 8 64.5 13t72.5 5q33 0 62 -3t57 -11q48 -13 75.5 -47.5t27.5 -84.5q0 -60 -8 -99t-36 -70q-40 -45 -180 -117q-66 -34 -100 -68
q-26 -25 -43.5 -47.5t-28.5 -47.5l-13 -27l20 11q11 6 22.5 8.5t22 4.5t23.5 3t28 1q17 0 46.5 -1.5t33.5 -1.5q26 0 50.5 -1t48.5 -2q29 0 49.5 3.5t37.5 12.5q22 13 37 43q12 26 20 66l4 25z" />
    <glyph glyph-name="three" unicode="3" horiz-adv-x="622" 
d="M586 238q0 -96 -49 -162q-53 -71 -146 -84q-65 -9 -126 -9q-90 0 -139 21q-42 17 -63 44q-25 32 -25 77q0 38 19.5 63t53.5 25q30 3 49.5 -9t22.5 -32.5t4.5 -53t15 -55t32.5 -30t49 -7.5q75 0 112 56q31 47 31 131t-26 121q-35 50 -128 50q-11 0 -66 -9q-21 -3 -26 -1
q-9 5 -9 23q0 25 10 28q6 2 29.5 -2t39.5 -4h24q12 3 17 4q61 11 91 54q27 38 27 98q0 53 -23 87q-27 40 -78 40q-31 0 -51 -7.5t-38 -29.5q-10 -13 -13 -33q-8 -52 -12 -60q-8 -17 -25 -25.5t-38 -8.5q-8 1 -12 1q-26 3 -39.5 19.5t-13.5 41.5q0 48 41 86q33 30 109 44
q50 9 97 9q64 0 111 -9t79 -35q24 -19 35 -46.5t11 -61.5q0 -14 -1 -21q-5 -55 -42 -91q-33 -32 -95 -50q-15 -4 -35.5 -6.5t-21.5 -7.5q-1 -6 28.5 -7.5t39.5 -3.5q86 -15 121.5 -52t41.5 -110z" />
    <glyph glyph-name="four" unicode="4" horiz-adv-x="693" 
d="M662 248q-8 -10 -14.5 -23.5t-9.5 -29.5q-2 -13 4 -29l-137 4v-126l56 -3h48l-3 -22q0 -8 3 -19l-157 2l-212 -2l2 19q0 14 -2 22h65l57 3v128h-315q4 16 4 34q-3 23 -13 42q54 83 66 100q39 58 139 197l76 104q51 68 52 69q24 -3 42 -3q12 0 26.5 1.5t23.5 2.5
q10 0 20.5 2t21.5 4v-477h157zM362 248v398q-37 -51 -64 -88q-31 -44 -65 -96t-67 -106t-63 -108h259z" />
    <glyph glyph-name="five" unicode="5" horiz-adv-x="632" 
d="M603 754l-53 -90q-9 -16 -18 -31q-3 -5 -18 -17q-20 -18 -65 -25t-106 -7q-45 0 -83.5 -1t-74.5 -2l-7 -83q0 -20 -3 -52q-6 -59 -5 -62q38 30 84.5 41.5t97.5 11.5q102 0 161 -47q68 -54 68 -164q0 -81 -38.5 -139t-111.5 -83q-68 -22 -179 -22q-79 0 -117 15
q-49 20 -71 42q-29 30 -29 75q-3 34 15.5 56.5t53.5 22.5q28 0 44.5 -7.5t26.5 -30.5q4 -12 5 -37t6 -40q9 -30 35.5 -46.5t58.5 -16.5q81 0 117 68q27 51 27 137q0 70 -27 114q-35 58 -109 58q-14 0 -35.5 -2.5t-44.5 -21.5q-19 -21 -37 -41q-14 -4 -25.5 2t-14 13t-2.5 19
q0 23 1 38q5 77 5 87q0 58 2.5 138.5t2.5 101.5q51 -8 146 -8q26 0 51 -0.5t49 -0.5q39 0 60 1.5t56 7.5t60 23q19 13 28 27z" />
    <glyph glyph-name="six" unicode="6" horiz-adv-x="640" 
d="M606 268q0 -104 -21 -155q-17 -42 -56 -71q-43 -33 -94.5 -46.5t-114.5 -13.5q-82 0 -125 13q-58 17 -101 67q-33 38 -44.5 117t-11.5 188q0 104 21 175q25 84 80 131q36 30 90 45.5t113 15.5q104 0 160 -18q84 -27 84 -97q0 -34 -12 -53q-17 -26 -55 -26
q-26 0 -45.5 10.5t-25 29t-6.5 47.5t-15 45.5t-33 21t-51 4.5q-76 0 -118 -109q-36 -94 -36 -234l2 -54l15 29q26 50 75 76.5t108 26.5q87 0 143 -36q66 -43 74 -129zM467 201q0 82 -28 124q-32 48 -101 48q-65 0 -103 -55t-38 -130q0 -71 36 -120.5t97 -49.5q70 0 106 54
q31 47 31 129z" />
    <glyph glyph-name="seven" unicode="7" horiz-adv-x="611" 
d="M585 723l-111 -189q-43 -71 -76 -130q-36 -65 -56 -107q-26 -55 -35 -121q-7 -72 -13 -144q-7 -25 -32 -37.5t-55 -12.5q-39 0 -58 18.5t-19 51.5q0 12 3 26q13 71 61 145q9 13 61 86q13 18 116 140q39 46 77 101l20 30l-26 -6q-24 -5 -52 -5q-11 0 -32 1t-32 1
q-22 0 -71 3.5t-70 3.5q-29 0 -44 -5q-31 -9 -47.5 -34.5t-25.5 -65.5l-8 -38l-21 9v188q0 21 1 32.5t6.5 28t30.5 24t68 7.5q48 0 117 -8q172 -20 199 -20q33 0 43.5 1.5t24 7.5t23.5 20l17 23z" />
    <glyph glyph-name="eight" unicode="8" horiz-adv-x="636" 
d="M606 213q0 -115 -89 -175q-83 -56 -224 -56q-252 0 -252 210q0 58 38.5 103t107.5 72l31 12l-36 21q-42 25 -68 66.5t-26 93.5q0 86 64.5 133t175.5 47q101 0 153 -29q59 -33 59 -103q0 -49 -24 -84.5t-69 -61.5l-44 -25l33 -16q91 -42 121 -72q49 -48 49 -136zM435 579
q0 56 -27 89q-31 37 -90 37q-47 0 -75.5 -30.5t-28.5 -74.5q0 -36 20 -64t89 -62l42 -22l18 14q52 42 52 113zM454 182q0 55 -35 90q-27 27 -95 58l-64 30l-25 -15q-46 -28 -65 -80q-14 -39 -14 -100q0 -59 40.5 -102.5t99.5 -43.5q73 0 115.5 44.5t42.5 118.5z" />
    <glyph glyph-name="nine" unicode="9" horiz-adv-x="629" 
d="M592 358q0 -104 -17 -171q-21 -81 -71 -131q-34 -35 -93 -54.5t-121 -19.5q-102 0 -152 19q-76 29 -76 109q0 26 15 48q20 29 58 29q27 0 45 -10t24 -34q2 -10 4.5 -43.5t15.5 -49t33 -21t49 -5.5q82 0 115 112q24 82 24 240v56l-15 -32q-22 -45 -66 -74t-102 -36
q-18 -2 -27 -2q-76 0 -129 42q-59 47 -68 130q-2 12 -2 24.5v19.5q0 57 18 104.5t58 79t102 43.5q43 8 117 8q75 0 113 -11q55 -16 96 -64q32 -37 44 -129q8 -64 8 -177zM434 537q0 76 -26 116q-31 48 -101 48t-104 -53q-30 -47 -30 -130q0 -84 25 -125q30 -49 98 -49
q65 0 103 61q35 56 35 132z" />
    <glyph glyph-name="colon" unicode=":" horiz-adv-x="234" 
d="M208 478q0 -37 -22.5 -59.5t-64.5 -22.5q-80 0 -80 80q0 36 20.5 57t59.5 21q40 0 63.5 -18t23.5 -58zM208 80q0 -38 -22.5 -60.5t-64.5 -22.5q-39 0 -59.5 21.5t-20.5 59.5q0 36 20.5 57t59.5 21q40 0 63.5 -18t23.5 -58z" />
    <glyph glyph-name="semicolon" unicode=";" horiz-adv-x="246" 
d="M215 475q0 -37 -22.5 -59.5t-63.5 -22.5q-81 0 -81 80q0 35 21.5 56.5t59.5 21.5q40 0 63 -18t23 -58zM185 -1q-5 -21 -23 -46q-14 -19 -40 -47q-32 -35 -46 -50q-19 -21 -59 -67l-17 -19l-34 11l15 19q19 26 38 51q29 41 35 61.5t6 50.5q0 11 -1 39t-1 44q0 67 9 88
q13 29 53 29q27 0 41 -4.5t24 -28t10 -59.5q0 -34 -10 -72z" />
    <glyph glyph-name="less" unicode="&#x3c;" 
d="M513 21l-478 209v71l478 209v-69l-402 -175l402 -176v-69z" />
    <glyph glyph-name="equal" unicode="=" 
d="M513 324h-478v64h478v-64zM513 143h-478v64h478v-64z" />
    <glyph glyph-name="greater" unicode="&#x3e;" 
d="M513 230l-478 -209v69l401 176l-401 175v69l478 -209v-71z" />
    <glyph glyph-name="question" unicode="?" horiz-adv-x="564" 
d="M535 637q0 -8 1 -17t1 -14q0 -43 -12.5 -79t-39.5 -61q-39 -36 -84 -61q-103 -56 -105 -58q-16 -15 -23.5 -45.5t-7.5 -71.5l-2 -32l-28 6l-5 62q0 14 -1 43t-1 42q0 20 2 34t8 22q18 24 76 72q85 71 85 146q0 59 -31.5 88.5t-86.5 29.5h-12q-9 -2 -13 -2q-49 -5 -67 -40
q-10 -19 -17 -78q-3 -26 -23.5 -39.5t-48.5 -13.5q-12 0 -18 1q-43 7 -43 63q0 45 31.5 79t80.5 47q59 16 148 16q63 0 112 -12t83.5 -44.5t40.5 -82.5zM331 64q0 -36 -26 -59t-65 -23q-37 0 -58.5 19.5t-21.5 55.5q0 38 23 61t60 23q46 0 67 -20.5t21 -56.5z" />
    <glyph glyph-name="at" unicode="@" horiz-adv-x="828" 
d="M784 463q0 -118 -76 -212t-179 -94q-44 0 -66 43q-7 14 -13 44l-32 -36q-40 -47 -102 -47q-63 0 -103 50t-40 117q0 98 83 172q75 67 154 67q31 0 52.5 -12t30.5 -37l10 -29l22 65l91 2l-83 -305q-3 -14 -3 -29t4.5 -25t15.5 -10q65 0 120.5 86.5t55.5 181.5
q0 123 -96 196q-88 67 -214 67q-136 0 -232.5 -96.5t-96.5 -232.5q0 -142 99 -243t239 -101q104 0 176 39q51 27 85 74q11 20 23 40h71q-16 -27 -31 -54q-44 -61 -111 -100q-93 -54 -215 -54q-163 0 -278 116t-115 278q0 161 113 275t273 114q146 0 254 -85
q114 -90 114 -225zM483 446q0 42 -16 67.5t-46 25.5q-53 0 -102.5 -87t-49.5 -172q0 -36 17.5 -62t54.5 -26q52 0 99 96q43 88 43 158z" />
    <glyph glyph-name="A" unicode="A" horiz-adv-x="923" 
d="M880 41l-4 -20q0 -13 2 -21l-169 2l-162 -2q2 8 2 21q0 9 -4 20l42 -1h26q16 2 26 3l-82 252h-280l-53 -141l-39 -113l37 -1l32 1l-3 -21l2 -20q-23 0 -67.5 2t-51.5 2q-19 0 -55 -2t-41 -2q1 3 2 12t1 10l-3 19h62q19 41 60 127q24 50 54.5 115.5t58.5 128.5
q24 54 60 137q57 134 93 220q36 -6 64 -6q24 0 40.5 2t29.5 4q37 -123 70 -216q24 -69 39 -114l142 -396l36 -3zM543 335l-116 351l-136 -351h252z" />
    <glyph glyph-name="B" unicode="B" horiz-adv-x="790" 
d="M760 218q0 -86 -48 -150q-51 -69 -129 -69l-350 3l-197 -2q3 10 2 19q0 14 -2 22h49l57 3v681l-57 3h-49q2 7 2 20t-2 21l197 -2l305 2q95 0 134 -42q34 -36 34 -111q0 -64 -36 -109.5t-102 -65.5q-13 -4 -35 -6.5t-24 -8.5l10 -4q51 -2 72 -6q90 -14 126 -52
q43 -45 43 -146zM520 488q14 17 22 47t8 60q0 37 -9.5 67.5t-28.5 47.5q-12 11 -34.5 14.5t-59.5 3.5q-16 0 -32.5 -0.5t-32.5 -0.5h-25.5t-31.5 -2v-288q3 -1 17 -1q12 0 50.5 1t57.5 1q63 6 99 50zM559 83q33 46 33 136q0 44 -9.5 80t-29.5 59t-50.5 31t-74.5 8
q-16 0 -29 -0.5t-23 -0.5h-36t-44 -3v-351q19 -3 48.5 -3.5t58.5 -0.5h29q48 0 70 6q35 9 57 39z" />
    <glyph glyph-name="C" unicode="C" horiz-adv-x="766" 
d="M738 224l-15 -119l-9 -87l-76 -9q-55 -9 -109 -17.5t-108 -8.5q-187 0 -279 79q-102 87 -102 282q0 245 109 348q91 86 280 86q49 0 110 -6t130 -12h65q-1 -7 -1 -13q0 -14 1 -37.5t1 -27.5l2 -135l-26 3l-22 -5l-12 49q-17 74 -70 112t-137 38q-21 0 -32 -1
q-120 -11 -177 -112q-50 -90 -50 -244q0 -181 66 -272.5t201 -91.5q87 0 135.5 38.5t66.5 117.5l9 39z" />
    <glyph glyph-name="D" unicode="D" horiz-adv-x="930" 
d="M892 464v-17.5t1 -21.5q0 -65 -8 -123q-11 -82 -37 -137q-33 -75 -106 -120.5t-157 -45.5q-94 0 -215.5 1.5t-135.5 1.5l-197 -2q3 11 3 19l-3 22h50l56 3v681l-56 3h-50l3 22q0 8 -3 19l197 -2q60 0 136.5 0.5t169.5 1.5q110 0 159 -11q77 -17 124 -72q37 -42 51 -81
q18 -50 18 -141zM725 402q0 161 -47 240q-38 65 -107 76q-27 5 -66 7t-77 2h-74l-56 -2v-683q19 -3 48 -3.5t59 -0.5q69 0 117 8q70 12 100 40q51 49 69 89q34 77 34 227z" />
    <glyph glyph-name="E" unicode="E" horiz-adv-x="740" 
d="M707 0q-8 0 -54.5 2t-90.5 2q-48 0 -154 -1t-173 -1l-195 -2l2 19q0 14 -2 22h49l57 3v681l-57 3h-49q2 8 2 22l-2 19l195 -4h327q66 0 91.5 1t53.5 3l-5 -80v-136l-57 -3l-6 48q-6 42 -18 71q-19 43 -45.5 48t-107.5 6.5t-111 1.5h-57v-293l142 3q15 0 30 7t20 17.5
t10.5 44t6.5 39.5l5 26l41 1l-3 -174l1 -145h-41l-3 30q0 22 -5 49t-12.5 40t-26 16.5t-50.5 3.5h-33h-82v-346q12 -2 18 -2q25 2 39 2h32q76 0 117.5 1.5t68.5 6.5t46 48q12 29 18 71l6 48l57 -3v-136z" />
    <glyph glyph-name="F" unicode="F" horiz-adv-x="719" 
d="M682 769l-5 -80v-68t1 -68l-58 -3l-6 48q-6 42 -18 71q-19 43 -45.5 48t-98 6.5t-102.5 1.5h-57v-293l124 3q40 0 52 21q5 10 8.5 35t7.5 52l4 26l41 1l-3 -174l1 -145h-40l-3 30q-5 43 -8.5 60.5t-11 30t-32.5 17t-60 4.5h-16l-64 1v-350q19 -4 30 -4q16 1 26 1h62
q-1 -14 -2 -22q0 -8 3 -19l-183 2l-197 -2q3 11 3 19l-3 22h50l57 3v681l-57 3h-50l3 22q0 8 -3 19l196 -4h309q66 0 91.5 1t53.5 3z" />
    <glyph glyph-name="G" unicode="G" horiz-adv-x="890" 
d="M858 286l-51 -2l-46 -2q0 -45 -1 -69q-4 -97 -4 -112v-108q-17 3 -44 6t-53 3q-18 0 -26 -1q-36 0 -133 -12q-49 -6 -82 -6q-187 0 -280 78q-104 87 -104 279q0 251 106 352q89 85 283 85q51 0 139 -10.5t113 -10.5l72 1q-2 -16 -2 -54v-23v-18v-15v-13q0 -18 -0.5 -37
t-0.5 -39v-12q-11 1 -16 1q-6 0 -11 1q-15 0 -23 -2l-11 44q-19 76 -75 113.5t-140 37.5h-18q-12 -2 -18 -2q-121 0 -182 -104q-54 -92 -54 -249q0 -179 70 -272t205 -93q27 0 60.5 8.5t47.5 17.5l22 12v221l-62 5l-67 1q2 8 2 21l-2 19q40 0 106 -1t108 -1q33 0 86 1t86 1
q-3 -11 -3 -19z" />
    <glyph glyph-name="H" unicode="H" horiz-adv-x="937" 
d="M901 0l-197 2l-170 -2q3 10 2 19q0 14 -2 22h50l56 3v350h-347v-350l56 -3h50q-2 -8 -2 -22q-1 -9 2 -19l-170 2l-197 -2q3 11 3 19l-3 22h50l57 3v681l-57 3h-50l3 22q0 8 -3 19l197 -2l170 2q-3 -10 -2 -19q0 -14 2 -22h-50l-56 -3v-286h347v286l-56 3h-50q2 8 2 22
q1 9 -2 19l170 -2l197 2q-3 -11 -3 -19l3 -22h-50l-57 -3v-681l57 -3h50l-3 -22q0 -8 3 -19z" />
    <glyph glyph-name="I" unicode="I" horiz-adv-x="431" 
d="M402 0l-170 2l-197 -2q3 10 2 19q0 14 -2 22h49l57 3v681l-57 3h-49q2 8 2 22q1 9 -2 19l197 -2l170 2q-3 -11 -3 -19l3 -22h-51l-56 -3v-681l56 -3h51l-3 -22q0 -8 3 -19z" />
    <glyph glyph-name="J" unicode="J" horiz-adv-x="600" 
d="M574 728h-46l-56 -3v-561q0 -32 -10 -68t-32 -56q-34 -32 -81.5 -45t-108.5 -13q-88 0 -131 17q-68 27 -68 97q0 33 20 51t49 18q27 0 43.5 -7t25.5 -29q5 -14 5 -31v-19v-12q0 -21 17 -32.5t41 -11.5q47 0 64 42q11 28 11 87v573l-56 3h-66l3 22q0 8 -3 19l213 -2l166 2
q-3 -10 -2 -19q0 -14 2 -22z" />
    <glyph glyph-name="K" unicode="K" horiz-adv-x="898" 
d="M864 41q-4 -12 -4 -24l1 -17q-33 3 -72 4t-81 1l-94 -5l-162 233l-110 151l-42 2v-342l56 -3h50q-2 -8 -2 -22q-1 -9 2 -19l-170 2l-197 -2q3 11 3 19l-3 22h50l57 3v681l-57 3h-50l3 22q0 8 -3 19l197 -2l170 2q-3 -10 -2 -19q0 -14 2 -22h-50l-56 -3v-300l36 6
q9 1 18 5t18 11q24 17 80 76q43 45 106 115l77 87l-37 2l-43 1l3 19q0 14 -3 22l143 -1l106 1l-3 -19q0 -14 3 -22l-48 -1l-35 -2l-261 -244l321 -435q23 -4 44 -4z" />
    <glyph glyph-name="L" unicode="L" horiz-adv-x="794" 
d="M765 268q0 -33 -5.5 -97.5t-5.5 -89.5l-2 -81q-8 0 -55 2t-90 2q-47 0 -176 -1t-196 -1l-195 -2l2 19q0 14 -2 22h49l57 3v681l-57 3h-49q2 8 2 22l-2 19l196 -2l170 2l-2 -19q0 -14 2 -22h-50l-56 -3v-681h57q69 0 148 4.5t103.5 8.5t49.5 60q10 22 30 83l22 66z" />
    <glyph glyph-name="M" unicode="M" horiz-adv-x="1152" 
d="M1125 0l-170 2l-197 -2q3 11 3 19l-3 22h50l56 3v660l-127 -316l-146 -388q-29 4 -57 4q-15 0 -25 -0.5t-29 -3.5l-169 423q-42 97 -60 139q-27 63 -62 138q0 -49 3 -129t3 -131q0 -65 12 -243q6 -89 6 -153l49 -3h49q-2 -8 -2 -22l2 -19l-105 2q-33 0 -85.5 -1t-84.5 -1
q3 10 2 19q0 14 -2 22h50l54 3q0 80 8 249q5 106 5 157l3 275l-70 3h-50q2 8 2 22q1 9 -2 19q31 0 83.5 -1t86.5 -1l133 2q17 -50 34 -99q26 -72 63 -156q28 -63 55 -128q36 -85 49 -115q27 -62 58 -127l172 419l79 206l106 -2l170 2q-3 -11 -3 -19l3 -22h-50l-56 -3v-681
l56 -3h50l-3 -22q0 -8 3 -19z" />
    <glyph glyph-name="N" unicode="N" horiz-adv-x="908" 
d="M878 728h-40l-54 -3q0 -67 -12 -248q-6 -91 -6 -157q0 -51 -4 -153t-4 -167h-11h-30.5t-30.5 1h-10h-29t-19 -1q-21 37 -98 155l-144 220q-100 150 -200 301q1 -14 2 -54t1 -42v-15v-14v-12v-11q0 -18 -0.5 -37t-0.5 -39v-12q0 -65 12 -243q6 -89 6 -153l49 -3h38
q-2 -8 -2 -22q-1 -9 2 -19l-94 2q-31 0 -80 -1t-80 -1q3 10 2 19q0 14 -2 22h40l54 3q0 68 10 249q5 91 5 157l3 275l-72 3h-35q2 8 2 22q1 9 -2 19q29 0 77 -1t78 -1l127 2q48 -78 73 -118q37 -60 74 -116q47 -73 85.5 -129t79.5 -114q45 -66 86 -128q0 25 1 78.5t1 87.5
q0 68 -10 244q-5 88 -5 151l-49 3h-39q2 8 2 22l-2 19l95 -2q31 0 80 1t80 1q-3 -10 -2 -19q0 -14 2 -22z" />
    <glyph glyph-name="O" unicode="O" horiz-adv-x="876" 
d="M845 416q0 -142 -37 -233q-45 -111 -151 -158q-52 -23 -112.5 -33.5t-125.5 -10.5q-74 0 -141.5 13.5t-103.5 35.5q-67 40 -99 106q-38 77 -38 246q0 125 35 206q41 95 134 144q43 24 109.5 36t142.5 12q97 0 181 -21q108 -28 159 -118q47 -84 47 -225zM678 409
q0 166 -47 243q-55 91 -189 91q-132 0 -191 -125q-45 -96 -45 -256q0 -147 44 -232q58 -111 186 -111q133 0 194 128q48 100 48 262z" />
    <glyph glyph-name="P" unicode="P" horiz-adv-x="762" 
d="M735 549q0 -104 -48 -157q-65 -71 -226 -71l-165 -1v-278q17 -3 24 -3q5 0 15 1t17 1h67l-3 -22q0 -8 3 -19l-186 2l-197 -2q3 10 2 19q0 14 -2 22h49l57 3v681l-57 3h-49q2 8 2 22q1 9 -2 19l197 -2h26h18h36h31h26h22h19h17h15h13h11h34t34 1h10q121 0 162 -65
q28 -45 28 -154zM535 410q17 21 27 65t10 95q0 49 -10.5 85t-34.5 51q-19 11 -47 15.5t-62 4.5q-18 0 -33 -0.5t-27 -0.5h-62v-363q3 -1 17 -1q12 0 50.5 1t57.5 1q40 4 64 12q31 11 50 35z" />
    <glyph glyph-name="Q" unicode="Q" horiz-adv-x="901" 
d="M963 -169q-3 -35 -22.5 -58t-53.5 -23q-33 0 -54 16t-25 53q0 40 -10 64t-37 38q-57 29 -148.5 46t-196.5 17q-83 0 -124 7q-59 10 -114 42q-88 48 -119 148q-22 70 -22 205q0 122 37 205q42 95 135 145q44 24 115.5 36t148.5 12q95 0 171 -16q114 -24 170 -118
q52 -87 52 -230q0 -139 -43 -232q-51 -111 -161 -155q-24 -10 -50 -16q-13 -3 -14 -9q0 -9 84 -18q48 -5 78 -11q52 -10 106 -21.5t76 -31.5q12 -11 17.5 -29t5.5 -42v-12q-2 -8 -2 -12zM690 412q0 168 -46 244q-56 92 -198 92q-131 0 -191 -126q-46 -97 -46 -258
q0 -149 42 -232q56 -111 188 -111q101 0 161 61q51 52 73 149q17 75 17 181z" />
    <glyph glyph-name="R" unicode="R" horiz-adv-x="837" 
d="M808 32l-1 -32l-140 -1h-15.5t-14.5 -1q-19 0 -25 1q-22 4 -38 23q-9 11 -12.5 28.5t-3.5 44.5q0 13 1 40t1 40v32q0 90 -16.5 122.5t-52.5 47.5q-23 9 -62 13.5t-74 4.5l-62 -1v-352q15 -3 24 -3q5 0 17.5 1t14.5 1h50l-3 -22q0 -8 3 -19l-170 2l-197 -2q3 11 3 19
l-3 22h50l57 3v681l-57 3h-50l3 22q0 8 -3 19l197 -2l312 -1q73 0 111 -31q46 -37 46 -120q0 -79 -44 -124q-38 -38 -110 -54q-10 -2 -42 -5t-32 -9q1 -4 35.5 -6t44.5 -3q56 -6 63 -7q54 -10 78 -45q14 -21 19.5 -37t5.5 -59v-116q0 -42 4 -66t20 -38q8 -7 24 -11t29 -4
q10 0 15 1zM508 483q15 16 23 45t8 66q0 36 -8.5 63t-27.5 43.5t-41 22t-53 5.5q-14 0 -29 -0.5t-30 -0.5h-25.5t-31.5 -2v-291q10 -2 40 -2q39 0 75.5 5.5t59.5 15.5t40 30z" />
    <glyph glyph-name="S" unicode="S" horiz-adv-x="650" 
d="M617 228q0 -112 -82.5 -179t-208.5 -67q-51 0 -129 6.5t-97 6.5q-21 0 -31.5 -1.5t-22.5 -3.5q0 25 1 67t1 68q0 30 -1 46q-4 65 -4 75h58l7 -57q10 -76 64 -123t129 -47q73 0 120 35q52 39 52 110q0 103 -91 138q-30 11 -106 27q-108 22 -160 58q-79 55 -79 158
q0 117 83 178q73 53 191 53l190 -13l46 -3v-99l4 -103h-54l-12 56q-15 66 -64 96t-126 30q-60 0 -96 -39t-36 -108q0 -63 70 -91q2 -1 130 -32q109 -25 125 -31q63 -22 93 -64q36 -51 36 -147z" />
    <glyph glyph-name="T" unicode="T" horiz-adv-x="858" 
d="M828 769q-3 -22 -4 -59t-1 -42q0 -38 1.5 -70t2.5 -52v-24h-52l-6 34q-9 47 -17 94q-15 60 -41 70q-12 5 -27 6t-44 1q-19 0 -38.5 -0.5t-39.5 -0.5l-55 -1v-681l56 -3h65q-2 -8 -2 -22l2 -19l-185 2l-211 -2q3 11 3 19l-3 22h64l57 3v681q-11 0 -22.5 1t-18.5 1h-15
q-12 0 -36 1t-35 1q-33 0 -55.5 -6.5t-34.5 -26.5t-23.5 -61t-16.5 -72l-7 -40l-52 -1l1 105l2 142l403 -2z" />
    <glyph glyph-name="U" unicode="U" horiz-adv-x="926" 
d="M898 728h-39l-45 -3l-22 -495q0 -74 -26 -125q-30 -59 -93 -87q-37 -17 -91 -25.5t-116 -8.5q-61 0 -118.5 8t-92.5 22q-60 22 -86.5 69t-26.5 137v505l-57 3h-49q2 8 2 22q1 9 -2 19l197 -2l170 2q-3 -11 -3 -19l3 -22h-51l-56 -3v-412q0 -139 29 -196q21 -42 80 -68
q37 -17 117 -17q43 0 82.5 7t62.5 22q50 32 67 91q11 39 11 110l1 224q0 67 -1.5 120.5t-3.5 118.5l-57 3h-49q2 8 2 22l-2 19l115 -2q28 0 74 1t74 1q-3 -11 -3 -19z" />
    <glyph glyph-name="V" unicode="V" horiz-adv-x="940" 
d="M910 728h-76q-36 -76 -61 -128q-52 -108 -55 -114q-30 -62 -60 -129q-36 -80 -54 -123q-23 -56 -46 -111q-27 -64 -52 -123q-22 4 -37 5t-28 1q-25 0 -33.5 -1t-38.5 -5q-37 123 -70 216q-24 69 -39 114l-139 396l-37 3l-46 -1l3 20q1 7 -1 21l182 -2l165 2q-2 -8 -2 -21
q0 -9 4 -20l-42 1h-20q-3 0 -32 -3l207 -621q25 55 66 155q62 151 75 183l108 285l-42 1l-41 -1q4 11 4 21l-2 20q23 0 72.5 -2t54.5 -2q19 0 57 2t56 2q-1 -3 -2 -12t-1 -10z" />
    <glyph glyph-name="W" unicode="W" horiz-adv-x="1281" 
d="M1250 728h-54q-44 -96 -83 -189q-59 -139 -78 -182q-37 -86 -70 -177t-65 -180q-12 2 -28 4t-28 2q-21 0 -35.5 -2t-27.5 -4l-97 353l-67 239l-81 -202q-37 -94 -84 -236q-26 -81 -51 -151l-56 3h-36.5t-35.5 -3q-20 70 -39 162q-25 120 -37 169l-90 392l-39 3l-34 -1
l4 20q0 13 -2 21l170 -2l137 2q-2 -8 -2 -21q0 -5 1 -10q2 -6 3 -10l-37 1q-15 0 -35 -3l129 -561q30 66 60 143.5t61 157t66 185.5q23 69 38 118l57 -3l60 3l36 -134l130 -483l104 284l102 292l-44 1l-29 -1q4 11 4 21l-2 20q21 0 64 -2t51 -2q18 0 50.5 2t39.5 2
q-1 -3 -2 -12t-1 -10z" />
    <glyph glyph-name="X" unicode="X" horiz-adv-x="851" 
d="M825 41l-4 -20q0 -13 2 -21l-189 2l-164 -2q2 8 2 21q0 5 -1 10q-2 6 -3 10l42 -1h21q9 2 16 3l-60 115q-24 45 -38 72q-5 8 -48 85l-5 16l-6 -18q-33 -50 -70 -110q-28 -45 -43 -69l-55 -93l38 -1l47 1q-4 -16 -4 -21l2 -20q-26 0 -75.5 2t-57.5 2q-28 0 -73 -2t-61 -2
q4 9 4 22l-3 19l88 1q41 51 61 76q26 34 59 77q23 30 63 85q32 43 62 87l-114 199l-94 160l-42 3l-38 -1q4 16 4 20l-1 21l173 -2l164 2l-2 -21l4 -20q-8 1 -21 1h-21q-13 0 -31 -3q18 -38 28 -57q2 -4 30 -55l60 -108l5 -21l4 18q11 16 33 49q33 49 52.5 81.5t27.5 46.5
q12 21 27 48l-42 1l-41 -1q4 11 4 21l-2 20q25 0 72.5 -2t54.5 -2q22 0 50.5 1t62.5 3q-1 -3 -2 -12t-1 -10l3 -19h-76l-117 -150l-90 -121l155 -254l104 -160l33 -3z" />
    <glyph glyph-name="Y" unicode="Y" horiz-adv-x="842" 
d="M804 728h-64q-73 -124 -139 -244q-19 -36 -56 -105q-33 -63 -55 -107v-228l56 -3h68q-2 -8 -2 -22l2 -19l-188 2l-205 -2l2 19q0 14 -2 22h58l57 3v200l-143 312l-84 170l-37 3l-38 -1q4 16 4 20l-1 21l173 -2l164 2l-2 -21l4 -20l-42 1h-24q-8 -3 -13 -3
q42 -103 85 -205q17 -36 49 -114q15 -36 30 -71l8 -22l5 17q35 68 64 129q23 47 39 82q21 46 43 92q17 37 41 92l-24 3q-10 0 -20.5 -0.5t-20.5 -0.5q4 16 4 21l-2 20q25 0 72.5 -2t54.5 -2l79 4q-1 -3 -2 -12t-1 -10z" />
    <glyph glyph-name="Z" unicode="Z" horiz-adv-x="808" 
d="M778 266q0 -28 -3.5 -71t-3.5 -60l-3 -135l-370 2l-356 -2l1 27l491 696h-135q-69 0 -106 -3t-57 -17.5t-37 -58.5q-8 -20 -22 -71l-13 -49q-11 4 -22 4l-18 -5l2 186v60q32 -4 119 -5t206 -1h43q149 0 185.5 1t52.5 5v-26l-481 -700h191h29q72 0 98 4q48 7 72 31
q20 20 35 51q8 17 23 61l28 79l20 -4h19q8 0 12 1z" />
    <glyph glyph-name="bracketleft" unicode="[" horiz-adv-x="298" 
d="M266 -145h-20l-101 3q-18 0 -48 -3t-35 -3h-17l4 33q3 18 4 55t1 97q0 42 -1 142t-1 150q0 118 -2 251.5t-5 165.5l-3 25h17q5 0 39 -2.5t44 -2.5q22 0 47.5 0.5t54.5 1.5h19v-34h-22h-21q-24 0 -40 -2.5t-25 -11.5t-10.5 -17.5t-1.5 -26.5l1 -725q0 -17 2.5 -26.5
t10.5 -18.5t25 -12t35 -3q12 0 20 0.5t13 0.5h14z" />
    <glyph glyph-name="backslash" unicode="\" horiz-adv-x="579" 
d="M566 -157q-8 2 -11 2q-5 0 -17 -5t-17 -23q-71 146 -124 252q-58 117 -129 254q-40 76 -79 153q-54 104 -70.5 134.5t-88.5 162.5q8 -3 14 -3t15.5 4t14.5 11l71 -142q38 -75 60 -117q34 -66 69 -131q73 -140 147 -280q69 -131 145 -272z" />
    <glyph glyph-name="bracketright" unicode="]" horiz-adv-x="303" 
d="M258 -148h-18q-4 0 -34 3t-49 3l-101 -3h-19l1 37h14h14.5t19.5 -1q16 0 32 1.5t25.5 11.5t12 19.5t2.5 27.5l-3 725q0 17 -1.5 25.5t-10.5 18t-32.5 12t-32.5 2.5h-21h-23v34h20q13 0 54 -1t48 -1q22 0 40.5 1.5t41.5 3.5h17l-2 -25q-3 -29 -5 -155t-2 -262v-199
q0 -105 1.5 -160t5.5 -85z" />
    <glyph glyph-name="asciicircum" unicode="^" horiz-adv-x="422" 
d="M395 621l-62 11l-117 86l-124 -86l-56 -11l137 148l45 -3l45 3z" />
    <glyph glyph-name="underscore" unicode="_" horiz-adv-x="736" 
d="M741 -137h-741v70h741v-70z" />
    <glyph glyph-name="grave" unicode="`" horiz-adv-x="307" 
d="M279 606q-9 0 -19 1.5t-11 1.5q-16 0 -23 -1q-49 24 -89 46q-25 13 -50 27q-27 13 -38 27.5t-11 27.5q0 7 3 13t8 9q17 10 33 10q20 0 40 -16q21 -20 27 -26q48 -46 63 -60q33 -31 67 -60z" />
    <glyph glyph-name="a" unicode="a" horiz-adv-x="684" 
d="M652 0l-155 -13q-30 0 -45 4t-29 21q-10 11 -14 25t-4 32l-35 -33q-21 -20 -70 -36.5t-93 -16.5q-78 0 -121 35q-48 39 -48 119q0 70 33 106q27 29 91 46q22 6 131 26q63 12 90 38.5t27 70.5q0 19 -2 29q-5 35 -27 55.5t-58 20.5q-10 0 -15 -1q-51 -6 -61 -38
q-6 -34 -12 -67q-7 -19 -25.5 -26.5t-43.5 -7.5q-26 0 -42 15q-19 18 -19 49q0 33 19 54t54 35q52 20 152 20q57 0 120.5 -10t86.5 -55q18 -36 18 -104q0 -28 -2.5 -78t-2.5 -60v-71q0 -28 1 -65t12.5 -54t29.5 -26.5t39 -9.5h12zM407 320l-52 -19q-97 -34 -100 -36
q-46 -23 -59 -68q-6 -21 -6 -44q0 -40 18.5 -70t53.5 -39q14 -3 27 -3q34 0 63 17.5t42 49.5q6 15 8.5 42t2.5 68z" />
    <glyph glyph-name="b" unicode="b" horiz-adv-x="794" 
d="M760 269q0 -156 -91 -228q-76 -60 -208 -60q-67 0 -135.5 33t-84.5 30q-18 -2 -39.5 -15t-34.5 -29h-39l5 27q2 25 4.5 49t2.5 51l-2 666h-44l-60 3l2 16v20q22 0 67 3t73 3q33 0 48 2t57 9v-396l32 39q27 32 82.5 54t108.5 22q139 0 197.5 -68.5t58.5 -230.5zM601 272
q0 79 -11 127q-15 64 -48 88q-44 32 -93 32q-50 0 -94 -33t-62 -105q-13 -51 -13 -118q0 -84 3 -106q7 -55 37 -88q22 -25 50 -37.5t60 -12.5q44 0 82 24q49 31 71 95q18 53 18 134z" />
    <glyph glyph-name="c" unicode="c" horiz-adv-x="628" 
d="M599 438q1 -5 1 -15q0 -29 -15 -44t-30 -17t-23 -2q-23 0 -40.5 10.5t-22.5 37t-10 59.5q-24 68 -105 68q-14 0 -21 -1q-76 -8 -109 -85q-26 -61 -26 -171q0 -127 38.5 -191t124.5 -64q63 0 98 16t57 59q8 15 11 44.5t5 34.5q3 8 29 8q20 0 25 -6t5 -19q0 -28 -15 -61
q-36 -88 -151 -109q-20 -4 -44.5 -6t-46.5 -2q-49 0 -88.5 7.5t-75.5 22.5q-72 29 -100.5 92t-28.5 167q0 107 31 171q37 77 122 107q27 10 66.5 14.5t88.5 4.5q42 0 81 -4t56 -9q49 -16 76 -41q33 -31 37 -76z" />
    <glyph glyph-name="d" unicode="d" horiz-adv-x="769" 
d="M742 0l-141 -3l-88 -4v87l-29 -29q-33 -32 -88 -50.5t-119 -18.5q-117 0 -179 72t-62 215t67 219t192 76q58 0 106 -11.5t80 -37.5l32 -26v304h-43l-60 3l2 16l-1 20q23 0 68 3t72 3q32 0 49 2t57 9v-807l31 -3l54 -4l-1 -22q-1 -5 1 -13zM513 234v95q0 85 -30 135
q-35 58 -108 58q-86 0 -134 -55t-48 -165q0 -92 15 -147q20 -73 68 -99q36 -20 81 -20q33 0 60.5 10.5t54 34t35.5 66.5q6 29 6 87z" />
    <glyph glyph-name="e" unicode="e" horiz-adv-x="640" 
d="M609 285h-419q0 -128 35 -191q40 -72 128 -72q58 0 91.5 17.5t54.5 59.5q9 18 14.5 37t7.5 26.5t10.5 11.5t24.5 4q28 0 37 -10q3 -3 3 -16q0 -43 -33 -84q-47 -59 -145 -80q-36 -7 -81 -7q-52 0 -95.5 8t-78.5 23q-72 29 -101 91.5t-29 165.5q0 107 32 174
q38 80 122 110q23 8 63.5 12.5t83.5 4.5q96 0 144 -12q81 -23 110 -102q21 -57 21 -171zM468 330l-1 33q0 64 -14.5 101.5t-46 52.5t-83.5 15q-75 0 -108 -73q-24 -53 -24 -130z" />
    <glyph glyph-name="f" unicode="f" horiz-adv-x="510" 
d="M524 776q3 -30 -11 -49.5t-48 -19.5q-38 0 -51 21q-8 13 -11 41.5t-15.5 36.5t-32.5 8q-11 0 -16 -1q-5 -3 -7 -3q-27 -9 -41.5 -34t-14.5 -58q0 -60 7 -130l4 -36h157l-3 -18l1 -19l-94 -4l-60 -2v-471l30 -2q17 0 34 -0.5t34 -0.5l-3 -22q2 -8 3 -13l-158 1l-172 -1
q1 6 3 13l-3 22l40 1l49 3v470l-69 3l-41 2l3 18l-4 17l108 4l1 50q0 65 15.5 109t58.5 83q32 28 75.5 40t93.5 12q28 0 58 -3.5t55 -21.5t25 -46z" />
    <glyph glyph-name="g" unicode="g" horiz-adv-x="733" 
d="M695 637q1 -5 1 -16q0 -42 -35 -63q-19 -12 -44 -16q-34 -3 -53 -5l-32 -4q36 -26 51.5 -56t15.5 -92q0 -93 -81 -134q-67 -34 -190 -34q-54 0 -93 12q-19 7 -38 15q-17 5 -37.5 -12.5t-16.5 -38.5q5 -23 20.5 -34.5t34 -13.5t49 -3.5t59.5 -1.5q41 0 101 2.5t67 2.5
q68 0 104 -16q44 -20 66 -72q10 -23 14 -46t4 -48q0 -57 -22.5 -108.5t-59.5 -82.5q-44 -37 -109 -56t-133 -19q-39 0 -72 5t-69 15q-76 23 -115 63q-44 45 -44 115q0 44 29.5 78.5t78.5 50.5q-75 44 -75 120q0 41 25.5 76t69.5 48q-52 53 -52 121q0 14 1 21q14 97 87 131
q52 24 170 24q22 0 61 -2.5t47 -2.5q39 0 70 10q12 4 16.5 11.5t4.5 17.5q0 3 -1 13.5t-1 16.5q0 10 4 18q18 35 64 35q50 0 58 -45zM473 394q0 141 -113 141q-57 0 -88 -47q-27 -41 -27 -103q0 -61 25.5 -98.5t76.5 -37.5q126 0 126 145zM542 -189q12 15 18 34t6 39
q0 52 -34 84q-23 22 -53 29.5t-71 7.5q-12 0 -38.5 -1t-40.5 -1h-26.5h-17.5h-41q-19 3 -29 4l-39 4l-8 -9q-33 -36 -33 -88q0 -62 43 -111q28 -32 76 -50t100 -18q62 0 109.5 18t78.5 58z" />
    <glyph glyph-name="h" unicode="h" horiz-adv-x="840" 
d="M804 0l-147 2q-33 0 -87.5 -1t-85.5 -1q2 10 2 13q0 14 -2 22l42 1l49 3v282q0 68 -19 114t-60 65q-29 13 -70 13q-32 0 -61 -8t-44 -21q-29 -25 -42.5 -62t-13.5 -83v-301l30 -2q13 0 26.5 -0.5t27.5 -0.5q-2 -8 -2 -22q0 -3 2 -13l-144 2l-165 -2q2 11 2 13q0 14 -2 22
l33 1l49 3v760l-44 1h-28q-11 0 -17 1l2 17l-1 18q29 0 70.5 2.5t54.5 2.5l106 8v-382l22 27q18 23 51 40.5t69.5 26t84.5 8.5q51 0 95 -9.5t70 -30.5q61 -49 61 -159v-332l30 -2l56 -1q-1 -3 -2 -8t-1 -14q0 -5 3 -13z" />
    <glyph glyph-name="i" unicode="i" horiz-adv-x="374" 
d="M285 745q0 -38 -23 -60.5t-68 -22.5q-42 0 -61.5 21.5t-19.5 58.5q0 36 21 58t65 22q39 0 62.5 -19.5t23.5 -57.5zM348 0l-141 2q-33 0 -84.5 -1t-82.5 -1q2 10 2 13q0 14 -2 22l36 1l49 3v473l-44 3l-42 4l2 17l-1 18q23 0 61 -1t62 -1l105 2v-516l30 -2q12 0 24.5 -0.5
t25.5 -0.5q-2 -8 -2 -22q0 -3 2 -13z" />
    <glyph glyph-name="j" unicode="j" horiz-adv-x="321" 
d="M284 743q0 -38 -23 -60.5t-68 -22.5q-41 0 -61 22t-20 58t21.5 58t64.5 22q39 0 62.5 -19.5t23.5 -57.5zM265 38q0 -49 -6 -82t-25 -68q-23 -41 -56.5 -67t-77.5 -39q-22 -7 -45.5 -10.5t-42.5 -3.5h-28v30l15 2q27 4 41.5 9t34.5 19q31 23 41 87q5 33 5 100v494l-42 2
l-49 3l4 16l-1 20q32 0 76.5 1.5t49.5 1.5l106 3v-518z" />
    <glyph glyph-name="k" unicode="k" horiz-adv-x="801" 
d="M774 35l-3 -17l2 -18l-129 2l-104 -2q-41 59 -51 73q-21 29 -57 75q-10 13 -59 78q-32 43 -43 51q-5 4 -17.5 4.5t-16.5 0.5h-12v-244l30 -2q13 0 26.5 -0.5t27.5 -0.5l-3 -22q2 -8 3 -13l-145 2l-165 -2q3 8 3 13q0 14 -3 22l34 1l48 3v760l-43 1l-59 1l1 17l-1 18
q29 0 77 2.5t63 2.5l106 8v-537l15 2q16 3 18 4t11 7q17 11 45 33q3 2 95 77q19 16 46 39q38 33 48 42l-52 1l-43 2v15v20l138 -1l127 1l-3 -17l2 -18l-40 -3h-38l-13 -8q-7 -5 -30 -22q-30 -22 -40 -29l-130 -89q33 -44 55 -72q34 -43 89 -111q46 -56 58.5 -72t59.5 -72
l32 -3z" />
    <glyph glyph-name="l" unicode="l" horiz-adv-x="385" 
d="M353 0l-141 2q-32 0 -84 -1t-84 -1q1 6 3 13l-3 22l37 1l48 3v756l-43 3h-32q-13 0 -19 1l1 16l-1 18q10 -1 60.5 3.5t72.5 4.5l105 8v-811l30 -2q12 0 24.5 -0.5t25.5 -0.5l-3 -22q2 -8 3 -13z" />
    <glyph glyph-name="m" unicode="m" horiz-adv-x="1214" 
d="M1186 0l-142 2q-32 0 -86 -1t-86 -1q1 6 3 13l-3 22l41 1l48 3v282q0 84 -7 114q-11 48 -50 67q-27 12 -62 12q-64 0 -104 -32q-28 -24 -39 -73q-7 -32 -7 -81v-25v-265l30 -2l57 -1q-2 -8 -2 -22q1 -8 2 -13l-148 2q-33 0 -84.5 -1t-82.5 -1q2 10 2 13q0 14 -2 22l36 1
l49 3v282q0 90 -15.5 127t-45.5 50t-64 13q-58 0 -90 -25t-44 -59.5t-12 -81.5v-307l30 -2q15 0 31 -0.5t32 -0.5q-1 -3 -2 -8t-1 -14q0 -5 3 -13l-153 2q-32 0 -84 -1t-84 -1q2 11 2 13q0 14 -2 22l36 1l49 3v467l-44 3l-54 3l1 16l-1 18q34 0 84.5 1.5t51.5 1.5l105 5v-92
q25 46 67 70q30 17 75 26q14 2 34.5 4t39.5 2q42 0 80.5 -8t65.5 -26q13 -9 26 -27.5t23 -39.5q19 35 55.5 60t73.5 34q18 4 43.5 7t47.5 3q46 0 82.5 -8.5t66.5 -28.5t40 -65q7 -32 7 -99v-328l30 -2q12 0 25 -0.5t26 -0.5q-1 -3 -2 -8t-1 -14q0 -5 3 -13z" />
    <glyph glyph-name="n" unicode="n" horiz-adv-x="822" 
d="M790 0l-141 2q-32 0 -84 -1t-84 -1q2 11 2 13q0 14 -2 22l36 1l49 3v282q0 64 -14 107q-17 52 -56 72q-29 15 -70 15q-33 0 -61 -8t-45 -22q-54 -45 -54 -129v-318l30 -2q12 0 24.5 -0.5t25.5 -0.5l-3 -22q2 -8 3 -13l-141 2q-32 0 -84 -1t-84 -1q1 6 3 13l-3 22l37 1
l48 3v473l-43 3l-42 4l1 17l-1 18q23 0 61 -1t62 -1l106 2v-83q26 42 67 64q28 15 70.5 25.5t90.5 10.5q49 0 91.5 -10.5t71 -35.5t40.5 -59.5t12 -88.5v-339l30 -2l51 -1q-1 -3 -2 -8t-1 -14q0 -5 3 -13z" />
    <glyph glyph-name="o" unicode="o" horiz-adv-x="714" 
d="M680 329q0 -128 -27 -197q-32 -81 -110 -117q-35 -16 -85 -24t-111 -8q-69 0 -149 13t-125 91q-41 70 -41 179q0 101 26 160q31 72 110 109q28 14 85.5 22t126.5 8q87 0 154 -16.5t106.5 -76t39.5 -143.5zM523 283q0 124 -29 175q-38 68 -144 68q-93 0 -132 -89
q-30 -68 -30 -187q0 -107 28 -159q38 -71 134 -71q100 0 140 72q33 60 33 191z" />
    <glyph glyph-name="p" unicode="p" horiz-adv-x="780" 
d="M753 282q0 -152 -68 -224q-59 -63 -184 -75q-12 -1 -21 -1.5t-15 -0.5q-49 0 -89 12t-66 37l-27 27v-307l30 -2l57 -1l-3 -27v-13q-27 0 -72 1t-73 1q-35 0 -92 -1t-89 -1q2 11 2 13q0 19 -2 27l50 1l48 4v756l-41 6l-54 4l1 22l-1 13h151l88 1v-92l20 26q35 46 96 66
q49 16 122 16q120 0 174 -64q58 -68 58 -224zM594 278q0 110 -18 153t-54 66t-82 23q-35 0 -63.5 -11.5t-50 -38t-33 -72t-11.5 -96.5v-51q0 -86 6 -118q11 -59 52 -83t88 -24q59 0 103 40q31 27 47 85t16 127z" />
    <glyph glyph-name="q" unicode="q" horiz-adv-x="776" 
d="M756 -293q-32 0 -91 1t-91 1q-26 0 -79 -1t-80 -1q2 10 2 13q0 19 -2 27l69 1l30 2v323l-16 -18q-31 -33 -89 -53t-113 -20q-124 0 -185 64q-69 73 -69 236q0 136 58.5 206t175.5 81q7 1 15.5 1h12.5q47 0 125 -17t104 -17q10 1 14 1q26 3 48 26q18 19 27 44l7 19h14
q6 0 14 5v-879l49 -4l50 -1q-2 -4 -2.5 -12.5t-0.5 -14.5q0 -5 3 -13zM516 285v28q0 77 -8.5 109t-28 56t-50.5 36.5t-63 12.5q-48 0 -83 -22q-46 -30 -64 -94q-14 -49 -14 -133t6 -120q10 -58 40 -87q47 -42 105 -42q45 0 87 27q49 32 64 97q9 40 9 132z" />
    <glyph glyph-name="r" unicode="r" horiz-adv-x="597" 
d="M566 470q0 -48 -6 -66q-12 -36 -51 -36q-34 0 -53 11q-24 14 -24 44q1 10 1 18q0 25 -6 39q-10 23 -36 30q-12 3 -25 3q-41 0 -68 -32q-33 -39 -33 -113v-330l30 -2l50 -1q-2 -8 -2 -22q1 -8 2 -13l-141 2q-32 0 -84 -1t-84 -1q3 8 3 13q0 14 -3 22l37 1l48 3v473l-43 3
l-42 4l1 17l-1 18l123 -2l106 2v-75q26 46 66 66q29 14 75 19q7 1 21 1q55 0 93 -21q46 -26 46 -74z" />
    <glyph glyph-name="s" unicode="s" 
d="M507 190q0 -92 -70 -150t-177 -58q-40 0 -84 5t-95 11l-37 -2l1 37l-2 185h44l9 -48q13 -71 55.5 -111.5t102.5 -40.5q54 0 84 28.5t30 74.5q0 51 -48 78q-21 12 -99 35.5t-117 57.5q-46 40 -46 103q0 84 59 128q53 40 138 40q37 0 75 -5t80 -10l40 -1l-1 -47l-1 -121
h-40l-3 27q-5 59 -40 92t-92 33q-44 0 -66 -24t-22 -62q0 -44 46 -70q25 -14 94 -33q114 -30 148 -64t34 -88z" />
    <glyph glyph-name="t" unicode="t" horiz-adv-x="471" 
d="M440 34l-4 -36l-30 -2l-100 -6h-23.5t-23.5 -1q-50 0 -68.5 6.5t-29 21t-13 50t-2.5 46.5v398h-30t-29 1h-10l-41 2l3 18l-4 16l108 5v52l-2 66q32 5 72 18q17 6 32.5 13t42.5 25v-173l151 -4l-2 -18l1 -18q-23 0 -45 -0.5t-44 -0.5l-60 -2v-318q0 -62 8.5 -95.5
t33.5 -49.5q11 -7 28 -10t34 -3h23z" />
    <glyph glyph-name="u" unicode="u" horiz-adv-x="833" 
d="M797 0l-119 2l-106 -2v92q-31 -43 -71 -67q-29 -18 -70.5 -29.5t-96.5 -11.5q-48 0 -87 10t-67 33q-31 26 -41.5 57t-10.5 93v330l-30 3l-63 5q2 8 2 22q0 4 -2 12l154 3l83 2v-321q0 -89 19 -129q16 -34 51 -50q15 -7 35.5 -11t36.5 -4q64 0 109 38q49 41 49 104v329
l-30 2l-64 3q1 3 2 11q0 5 1 11q0 6 -3 12l155 3l83 2v-512q10 -2 20.5 -4t21.5 -2t21 -0.5t18 -0.5l-1 -17z" />
    <glyph glyph-name="v" unicode="v" horiz-adv-x="733" 
d="M700 519l-17 -1l-31 -3q-58 -113 -110 -225q-37 -77 -67 -144q-33 -72 -63 -146q-32 4 -62 4t-61 -4q-18 54 -44 127q-44 123 -51 144l-92 244l-30 2l-39 2q2 8 2 22q0 3 -2 13l141 -2q30 0 80 1t81 1q-3 -8 -3 -13q0 -14 3 -22l-30 -1l-45 -3q23 -71 39 -118
q21 -62 43 -124l72 -197l2 11l87 222l77 207l-33 2l-34 1l3 22q-2 8 -3 13q19 0 50 -1t51 -1l86 2q-2 -10 -2 -13q0 -14 2 -22z" />
    <glyph glyph-name="w" unicode="w" horiz-adv-x="1116" 
d="M1078 519l-17 -1l-47 -3l-104 -228q-26 -57 -51 -114q-45 -100 -71 -173q-15 2 -29.5 3t-29.5 1q-18 0 -50 -4l-86 268l-55 169l-58 -134q-70 -170 -117 -303q-29 4 -58 4q-28 0 -59 -4q-15 44 -37 127q-29 106 -39 144l-73 244l-25 2l-39 2q2 8 2 22q0 3 -2 13
q26 0 69.5 -1t71.5 -1l134 2q-2 -10 -2 -13q0 -14 2 -22l-29 -1l-35 -3q17 -54 35 -118q26 -96 34 -122l46 -156l3 -22l4 17l84 208l91 232l51 -1l56 1l93 -284l52 -150l3 -19l5 16l69 190l74 209l-35 2l-37 1l3 22q-2 8 -3 13q20 0 52 -1t52 -1q19 0 51 1t51 1
q-2 -10 -2 -13q0 -14 2 -22z" />
    <glyph glyph-name="x" unicode="x" horiz-adv-x="715" 
d="M681 0q-29 0 -76 1t-77 1t-80 -1t-81 -1q1 6 3 13l-3 22l29 2l41 4q1 6 -10 23q-4 6 -19 31q-11 18 -61 106q-12 20 -23 40l-11 -18l-84 -114q-25 -36 -50 -71l45 -2l26 -1q-2 -8 -2 -22q0 -3 2 -13l-86 2q-24 0 -62 -1t-61 -1q2 10 2 13q0 14 -2 22l27 1l37 3l93 104
l109 126l-84 136l-62 110l-30 2l-40 2l3 22q-2 8 -3 13l141 -2l154 2q-3 -8 -3 -13q0 -14 3 -22l-22 -2l-37 -4q-1 -6 8 -22t19 -31q12 -23 33 -55.5t22 -36.5l6 13q13 15 27 31q21 25 43 52q14 18 21 27.5t21 24.5l-31 2l-25 1q2 8 2 22q1 6 0 8t-2 5l85 -2l90 2
q-2 -11 -2 -13q0 -14 2 -22l-17 -1l-35 -3l-83 -81q-22 -23 -43 -45q-17 -18 -41 -46q38 -67 70 -120q22 -37 45 -74l68 -110l31 -2l40 -2q-2 -8 -2 -22q1 -8 2 -13z" />
    <glyph glyph-name="y" unicode="y" horiz-adv-x="730" 
d="M703 520l-18 -2l-35 -3l-104 -225q-67 -140 -134 -279q-27 -56 -49 -99q-26 -50 -53 -97q-36 -64 -82 -89q-38 -21 -92 -21q-45 0 -77 24.5t-32 65.5q-3 34 18.5 58.5t57.5 24.5q24 0 39 -8t24 -29q3 -7 3 -20v-15v-11q2 -15 7.5 -22.5t22.5 -7.5q36 0 75 60
q10 15 63 119l28 54q-14 9 -26 9q-8 0 -19.5 -2.5t-20.5 -4.5q-22 66 -59 162q-28 72 -43 110q-47 121 -93 243l-30 2l-35 2q1 3 2 11q0 5 1 11q0 5 -3 13l136 -2l145 2q-2 -10 -2 -13q0 -14 2 -22l-29 -1h-18q-11 -2 -19 -3q18 -57 42 -118.5t48 -122.5l72 -177l4 18
q43 104 78 197q11 28 38 104t35 100l-39 2l-35 1q1 3 2 11q0 5 1 11q0 5 -3 13q22 0 51.5 -0.5t66.5 -1.5l88 3q-2 -10 -2 -13q0 -14 2 -22z" />
    <glyph glyph-name="z" unicode="z" horiz-adv-x="646" 
d="M618 240l-8 -87q-3 -35 -5 -75.5t-2 -77.5l-336 3l-227 -3l2 25l382 486h-56h-44q-52 0 -74.5 -3t-35.5 -8q-21 -9 -35.5 -33.5t-30.5 -77.5l-5 -21h-41l7 68l5 118q53 0 129 -3.5t107 -3.5q57 0 138.5 3.5t115.5 3.5v-35l-366 -478h51q86 0 145.5 6t78.5 26q15 16 33 60
q15 37 21 66l9 41h42z" />
    <glyph glyph-name="braceleft" unicode="{" horiz-adv-x="315" 
d="M282 766q-16 -7 -25 -12q-29 -16 -40 -31t-16.5 -35t-5.5 -35v-244q0 -15 -6.5 -37t-20.5 -38q-19 -20 -48 -30l-16 -6l17 -7q16 -7 26.5 -13.5t18.5 -16.5q17 -23 17 -51v-269q0 -28 4.5 -45.5t21.5 -35.5q8 -9 35 -23q9 -4 26 -12h-33q-29 0 -59 9t-48 27t-23.5 33
t-5.5 45v272q0 19 -3.5 33t-13.5 24.5t-22 16t-20 8.5l-14 7l13 5q16 7 28 13.5t22 17.5q22 22 22 62v250q0 44 33 83q18 20 39.5 27.5t54.5 7.5h42z" />
    <glyph glyph-name="bar" unicode="|" horiz-adv-x="203" 
d="M147 -299h-82l1 1072h79z" />
    <glyph glyph-name="braceright" unicode="}" horiz-adv-x="322" 
d="M291 303l-14 -7l-22 -10t-18 -13q-11 -12 -15.5 -27t-4.5 -32v-272q0 -29 -5.5 -44.5t-23 -33.5t-46.5 -27t-61 -9h-32q17 7 25 11q25 13 36 24q15 17 20.5 36t5.5 45v262q0 24 3 34t14 24q6 8 14.5 14.5t30.5 15.5l17 7l-16 6q-17 6 -26.5 11.5t-22.5 20t-20 36t-7 37.5
l1 244q0 15 -5.5 35t-17.5 36.5t-48 34.5q-6 3 -16 7h42q31 0 53.5 -7.5t40.5 -27.5q33 -39 33 -83v-250q0 -39 21 -62q11 -11 23 -18q6 -4 28 -13z" />
    <glyph glyph-name="asciitilde" unicode="~" horiz-adv-x="474" 
d="M444 749l-15 -21q-23 -31 -37 -43q-21 -18 -50 -22q-5 -1 -16 -1q-32 0 -93 24.5t-93 24.5q-14 0 -24.5 -10.5t-20.5 -28.5l-14 -22q-2 3 -3 4q-4 5 -11 9.5t-23 11.5q-2 1 -7 3l17 26q38 57 91 65q4 1 12 1q28 0 76 -16t98 -33q19 0 31 8t24 25l14 22l22 -17q5 -3 15 -7
q2 -1 7 -3z" />
    <glyph glyph-name="nonbreakingspace" unicode="&#xa0;" horiz-adv-x="620" 
 />
    <glyph glyph-name="exclamdown" unicode="&#xa1;" horiz-adv-x="237" 
d="M206 484q0 -32 -23 -52t-61 -20t-60.5 18.5t-22.5 54.5q0 38 24 58.5t64 20.5q37 0 58 -20t21 -60zM184 -26v-32.5t1 -33.5q0 -36 -3.5 -60.5t-13.5 -38.5t-28.5 -25t-29.5 -11q-11 -2 -37 20q-17 14 -20 26q-10 36 -10 71q0 19 3 45q0 4 6.5 52t22.5 122.5t23 118
t8.5 61t1.5 48.5v18h31v-24q0 -13 1.5 -37t5.5 -56q8 -84 18 -143.5t20 -120.5z" />
    <glyph glyph-name="cent" unicode="&#xa2;" horiz-adv-x="600" 
d="M568 589q0 -29 -11.5 -45.5t-23 -18t-19.5 -1.5q-35 0 -40 30t-5 32q-3 13 -11 24q-12 18 -30 28t-42 14l-10 1l-3 -215l2 -303l9 1q35 3 57 14q35 17 53 53q5 9 9 28t7.5 28t24.5 9q17 0 23 -4q4 -4 4 -20q0 -18 -8 -37q-16 -41 -52 -65t-83 -32l-34 -6l-10 -1l2 -122
q-9 8 -24 6q-12 -1 -18 -10l2 124h-12q-49 0 -76 4q-46 7 -88 28q-69 34 -96 97t-27 167q0 107 34 170q38 71 126 98q29 10 60 15t64 5h15v105q8 -9 20 -9q5 0 12 4q5 3 9 6l-3 -107l12 -1q46 0 90 -12q91 -22 91 -82zM339 134v298v221l-15 -1q-83 0 -122 -79
q-33 -67 -33 -182q0 -256 163 -256z" />
    <glyph glyph-name="sterling" unicode="&#xa3;" horiz-adv-x="887" 
d="M849 255q1 -8 1 -12q0 -25 -10 -50q-2 -6 -25 -50q-35 -68 -71 -107q-50 -54 -104 -54q-62 0 -149 35q-64 28 -98 42q-93 40 -126 52q-68 25 -104 25q-20 0 -33.5 -12.5t-13.5 -30.5q0 -10 11 -29t11 -32q0 -22 -18.5 -34.5t-43.5 -12.5q-18 0 -30 15t-12 36q0 22 12 40
q3 4 18 21q67 62 99.5 96.5t47.5 71.5t22.5 79t7.5 75l-70 1l-48 -2l2 20l-1 17h119l2 35q13 115 22 144q22 66 85 106q33 20 84 30t107 10q37 0 71 -4t56 -10q41 -11 66.5 -36t32.5 -65q1 -5 1 -13q0 -31 -18.5 -51.5t-47.5 -20.5q-28 0 -47 9.5t-27 33.5q-4 13 -5 34.5
t-4 35.5q-7 30 -28 42.5t-53 12.5q-13 0 -20 -1q-72 -7 -99 -83q-14 -37 -21 -84.5t-12 -79.5l-6 -41h209l-4 -28l1 -18q-24 0 -63 2.5t-54 2.5l-95 -1q0 -29 -8.5 -50t-27.5 -49q-14 -21 -33 -37t-39 -28l-24 -14l25 -2q36 0 101 -22.5t134 -45t127.5 -36.5t96.5 -14
q23 0 38 10t18 35q3 21 -22 44t-25 41q0 23 18 40t42 17q21 0 36.5 -14.5t15.5 -36.5z" />
    <glyph glyph-name="yen" unicode="&#xa5;" horiz-adv-x="837" 
d="M808 769q-4 -9 -4 -22l3 -19h-63q-36 -60 -71 -121q-38 -66 -68 -122t-57 -108t-55 -109l110 5l-3 -22q-1 -8 0.5 -15t2.5 -12l-109 2v-29l109 5l-3 -21q-1 -9 0.5 -16t2.5 -12l-109 2v-111l56 -3h68q-2 -8 -2 -22q-1 -9 2 -19l-188 2l-206 -2q3 11 3 19l-3 22h59l57 3
v111l-99 -2q4 14 3 27l-3 22l99 -1v25l-99 -2q4 14 3 27l-3 22l86 -1l-130 284q-31 60 -44 86q-20 40 -40 84l-38 3l-37 -1l4 20q0 13 -2 21l174 -2l164 2q-2 -8 -2 -21q0 -5 1 -10q2 -6 3 -10l-42 1h-21q-9 -2 -16 -3q20 -52 41.5 -105t44 -102t39.5 -90q31 -75 39 -93
l8 -22l5 17q18 35 52 105q20 42 51 106l84 184l-24 3q-11 0 -21 -0.5t-20 -0.5l3 21l-2 20q24 0 64 -2t64 -2z" />
    <glyph glyph-name="section" unicode="&#xa7;" horiz-adv-x="539" 
d="M505 299q0 -36 -22 -69q-14 -22 -38 -42l-22 -20l5 -3q62 -41 62 -115q0 -82 -82 -157t-174 -75q-45 0 -92.5 14t-73.5 30l-8 5l13 162h32v-57q0 -35 39 -65q35 -26 69 -30q11 -1 21.5 -1.5t20.5 -0.5q78 0 119 31q47 35 47 109q0 63 -216 137l-39 13q-81 28 -110 69
q-18 25 -18 65q0 42 24 82q18 30 48 56l12 11l-11 8q-20 14 -33 40t-13 55q0 89 57 157q64 76 162 76q26 0 51 -2.5t38 -6.5l64 -20l11 -4l-1 -6l-7 -76l-4 -64v-12l-32 1l-8 87l-4 5q-19 21 -57 34t-72 13q-53 0 -91 -27.5t-48 -83.5q-1 -5 -1 -14q0 -48 66 -85
q27 -15 87 -35l17 -5l16 -5q5 -2 40.5 -13t59.5 -21q54 -23 77 -64q19 -34 19 -81zM432 252q2 10 2 18q0 31 -17 55q-22 31 -72 47l-193 62l-17 -19q-15 -16 -20.5 -37t-5.5 -49q0 -50 131 -97q93 -30 134 -44l24 -8l9 14q20 28 25 58z" />
    <glyph glyph-name="dieresis" unicode="&#xa8;" horiz-adv-x="351" 
d="M325 717q0 -25 -14.5 -41.5t-43.5 -16.5q-27 0 -41 17t-14 40q0 22 16.5 37.5t40.5 15.5q56 0 56 -52zM147 717q0 -24 -14 -41t-42 -17t-42 17t-14 40q0 22 16.5 37.5t40.5 15.5q55 0 55 -52z" />
    <glyph glyph-name="copyright" unicode="&#xa9;" horiz-adv-x="839" 
d="M421 0q-181 0 -288 120q-96 108 -96 264t96 264q107 120 288 120t288 -120q96 -108 96 -264t-96 -264q-107 -120 -288 -120zM421 41q162 0 257 107q86 97 86 236q0 140 -85 236q-95 107 -258 107q-162 0 -257 -107q-86 -97 -86 -236t86 -236q95 -107 257 -107zM584 224
l-10 -27l-14 -7q-21 -10 -57 -19t-68 -9q-100 0 -163 51t-73 140q-1 6 -1.5 15.5t-0.5 18.5q0 90 58 149q48 49 120 62q11 2 24.5 3t25.5 1q20 0 35.5 -1.5t33.5 -4.5l79 -19l8 -3l-12 -90h-19v37v6q0 13 -24.5 26.5t-41.5 16.5t-29 4.5t-30 1.5q-16 0 -33 -3
q-68 -15 -99.5 -62.5t-31.5 -114.5v-18q2 -12 2 -18q8 -72 58 -119.5t118 -47.5q42 0 71.5 8t55.5 21l14 8z" />
    <glyph glyph-name="ordfeminine" unicode="&#xaa;" horiz-adv-x="373" 
d="M342 488q-25 -4 -51 -4q-5 0 -17 -1t-18 -1q-9 0 -15 2q-7 2 -13 10t-7 15l-2 13l-18 -16q-10 -9 -34.5 -18t-46.5 -9q-39 0 -60 17q-24 20 -24 60q0 49 36 67q18 9 91 23q31 6 45 19.5t14 35.5q0 8 -1 13q-6 38 -54 38q-23 0 -26.5 -17.5t-6.5 -35.5q-4 -9 -12.5 -12.5
t-22.5 -3.5q-30 0 -30 31q0 17 9.5 27.5t27.5 17.5q8 3 27 6.5t50 3.5q29 0 59.5 -5t42.5 -27q9 -17 9 -51q0 -16 -1 -34l-2 -36q0 -28 0.5 -56.5t6.5 -37.5q12 -20 35 -20h6zM342 392h-306l3 18l-3 18h306l-3 -18q-1 -6 3 -18zM220 648l-26 -9l-50 -18q-22 -11 -27.5 -30.5
t-5.5 -27.5q0 -19 9.5 -34t22.5 -18t18 -3q18 0 32 8.5t21 25.5q3 8 4 30t1 25z" />
    <glyph glyph-name="guillemotleft" unicode="&#xab;" horiz-adv-x="566" 
d="M537 415l-159 -114l155 -110v-115l-220 172v110l224 166v-109zM256 415l-159 -114l155 -110v-115l-220 172v110l224 166v-109z" />
    <glyph glyph-name="logicalnot" unicode="&#xac;" horiz-adv-x="832" 
d="M801 0h-64v268h-705v59h769v-327z" />
    <glyph glyph-name="registered" unicode="&#xae;" horiz-adv-x="835" 
d="M421 0q-181 0 -288 120q-96 108 -96 264t96 264q107 120 288 120t288 -120q96 -108 96 -264t-96 -264q-107 -120 -288 -120zM421 41q162 0 257 107q86 97 86 236q0 140 -85 236q-95 107 -258 107q-162 0 -257 -107q-86 -97 -86 -236t86 -236q95 -107 257 -107zM628 173
h-5l-35 2l-33 -2l-8 -1l-169 218l3 10l21 -1q45 0 79 25q38 28 34 68q0 32 -17 52.5t-52 25.5q-7 1 -15 1h-9q-16 0 -30 -1.5t-25 -4.5l-9 -2v-337q0 -15 8 -24q4 -5 11.5 -7t22.5 -2l14 -2v-17h-10l-74 3l-76 -3h-10v18l17 1q7 0 15.5 1.5t16 8.5t7.5 23v315q0 18 -8 27
q-4 4 -19 6.5t-22 2.5h-7v18h10l77 -3l112 3h10q38 0 67 -12q38 -16 50 -48q6 -18 6 -34q0 -55 -56 -92q-12 -9 -33 -16q-2 -1 -24 -7l-5 -1l136 -178q4 -3 5 -4q7 -6 10 -8l16 -5z" />
    <glyph glyph-name="degree" unicode="&#xb0;" horiz-adv-x="306" 
d="M271 610q-11 -47 -43 -71t-72 -24q-48 0 -85 32t-37 84q0 13 3 30q10 47 42 71t73 24q48 0 85 -32t37 -84q0 -13 -3 -30zM227 631q0 36 -22.5 56t-53.5 20q-29 0 -50 -19t-21 -53q0 -36 22 -56t54 -20q29 0 50 19t21 53z" />
    <glyph glyph-name="plusminus" unicode="&#xb1;" horiz-adv-x="500" 
d="M466 315h-189v-188h-48v188h-187v53h187v189h50v-189h187v-53zM462 -1h-428v40h428v-40z" />
    <glyph glyph-name="acute" unicode="&#xb4;" horiz-adv-x="307" 
d="M268 758q11 -7 11 -22q0 -14 -10 -26q-13 -16 -36.5 -28t-51.5 -27q-54 -29 -90 -47q-11 1 -16 1h-7q-6 0 -16 -1.5t-14 -1.5q53 46 83 74q35 34 47.5 46t26.5 25q21 17 41 17q15 0 32 -10z" />
    <glyph glyph-name="mu" unicode="&#xb5;" horiz-adv-x="671" 
d="M638 112l-7 -35q-9 -44 -56 -75q-43 -28 -79 -23q-38 6 -68 37.5t-30 73.5l-29 -29q-34 -33 -74 -55.5t-69 -22.5q-27 0 -63 16q-42 19 -65 49v-39q0 -33 12 -67q28 -79 28 -116q0 -29 -15.5 -51t-40.5 -22q-24 0 -39 19.5t-15 46.5q0 33 9 63q23 76 24 86l3 31v560h95
v-385q0 -49 28 -84.5t73 -35.5q46 0 91 35q49 38 49 84v386h92v-435q0 -34 16 -63t43 -29q6 0 9 1q38 7 49 49l9 30h20z" />
    <glyph glyph-name="paragraph" unicode="&#xb6;" horiz-adv-x="668" 
d="M636 737h-12q-11 0 -31.5 -2.5t-34 -7t-21.5 -19t-8 -40.5v-10v-712v-14q0 -21 14.5 -29t33.5 -11.5t32 -3.5l21 -1v-30h-19q-33 1 -90.5 2.5t-104.5 1.5q-45 0 -98.5 -1t-108.5 -3h-17v32l26 2q23 0 37.5 2t25.5 14q17 18 17 43l1 442h-14q-17 0 -54 10q-49 13 -93 36.5
t-73.5 71t-29.5 99.5q0 28 11 58q22 57 87 84q52 22 119 22h16q51 -3 99.5 -5t90.5 -2q53 0 92.5 1t71.5 2l14 1v-33zM298 729l-18 1q-22 0 -49 -12q-74 -33 -74 -123q0 -58 35.5 -103t95.5 -56l9 -2zM449 728h-68l-1 -827h68z" />
    <glyph glyph-name="periodcentered" unicode="&#xb7;" horiz-adv-x="241" 
d="M210 388q0 -37 -23.5 -60.5t-64.5 -23.5q-40 0 -62 21t-22 60q0 36 22.5 58.5t61.5 22.5q42 0 65 -18.5t23 -59.5z" />
    <glyph glyph-name="periodcentered" unicode="&#x2219;" horiz-adv-x="241" 
d="M210 388q0 -37 -23.5 -60.5t-64.5 -23.5q-40 0 -62 21t-22 60q0 36 22.5 58.5t61.5 22.5q42 0 65 -18.5t23 -59.5z" />
    <glyph glyph-name="ordmasculine" unicode="&#xba;" horiz-adv-x="394" 
d="M362 650q0 -64 -15 -101.5t-54 -55.5q-16 -8 -41.5 -12t-55.5 -4q-35 0 -75 7t-62 44t-22 91q0 50 14.5 83t53.5 51q14 7 43 11t64 4q45 0 77.5 -8t52.5 -38t20 -72zM362 392h-322l3 18l-3 18h322l-3 -18q-1 -6 3 -18zM283 627q0 63 -14 88q-19 34 -72 34q-47 0 -67 -44
q-15 -33 -15 -94q0 -53 14 -79q19 -36 68 -36t69 36q17 30 17 95z" />
    <glyph glyph-name="guillemotright" unicode="&#xbb;" horiz-adv-x="573" 
d="M542 248l-220 -172v115l155 110l-159 114v109l224 -166v-110zM261 248l-221 -172v115l156 110l-159 114v109l224 -166v-110z" />
    <glyph glyph-name="questiondown" unicode="&#xbf;" horiz-adv-x="568" 
d="M415 490q0 -38 -23 -61t-60 -23q-46 0 -67 20.5t-21 56.5q0 35 26 58t65 23q37 0 58.5 -19.5t21.5 -54.5zM536 -87q0 -45 -31.5 -79t-80.5 -47q-63 -17 -148 -17q-63 0 -107 11q-54 14 -87 45q-36 34 -42 84q-1 8 -1.5 17t-0.5 14q0 43 12.5 79t39.5 61q39 36 84 61
q103 56 105 58q16 15 23.5 45.5t7.5 71.5l2 32l28 -6l5 -62q0 -21 1 -43t2 -43q0 -19 -2 -33t-9 -22q-17 -21 -78 -72q-83 -70 -83 -146q0 -58 32 -88t87 -30q16 0 24 1q49 6 67 41q10 19 17 77q3 27 23 40.5t50 13.5q11 0 17 -1q43 -7 43 -63z" />
    <glyph glyph-name="Agrave" unicode="&#xc0;" horiz-adv-x="910" 
d="M880 41l-4 -20q0 -13 2 -21l-169 2l-162 -2q2 8 2 21q0 9 -4 20l42 -1h26q16 2 26 3l-82 252h-280l-53 -141l-39 -113l37 -1l32 1l-3 -21l2 -20q-23 0 -67.5 2t-51.5 2q-19 0 -55 -2t-41 -2q1 3 2 12t1 10l-3 19h62q19 41 60 127q24 50 54.5 115.5t58.5 128.5
q24 54 60 137q57 134 93 220q36 -6 64 -6q24 0 40.5 2t29.5 4q37 -123 70 -216q24 -69 39 -114l142 -396l36 -3zM543 335l-116 351l-136 -351h252zM624 864q-9 0 -19 1.5t-11 1.5q-16 0 -23 -1q-49 24 -89 46q-25 13 -50 27q-27 13 -38 27.5t-11 27.5q0 7 3 13t8 9
q17 10 33 10q20 0 40 -16q21 -20 27 -26q48 -46 63 -60q33 -31 67 -60z" />
    <glyph glyph-name="Aacute" unicode="&#xc1;" horiz-adv-x="915" 
d="M880 41l-4 -20q0 -13 2 -21l-169 2l-162 -2q2 8 2 21q0 9 -4 20l42 -1h26q16 2 26 3l-82 252h-280l-53 -141l-39 -113l37 -1l32 1l-3 -21l2 -20q-23 0 -67.5 2t-51.5 2q-19 0 -55 -2t-41 -2q1 3 2 12t1 10l-3 19h62q19 41 60 127q24 50 54.5 115.5t58.5 128.5
q24 54 60 137q57 134 93 220q36 -6 64 -6q24 0 40.5 2t29.5 4q37 -123 70 -216q24 -69 39 -114l142 -396l36 -3zM543 335l-116 351l-136 -351h252zM583 1019q11 -7 11 -22q0 -14 -10 -26q-13 -16 -36.5 -28t-51.5 -27q-54 -29 -90 -47q-11 1 -16 1h-7q-6 0 -16 -1.5
t-14 -1.5q53 46 83 74q35 34 47.5 46t26.5 25q21 17 41 17q15 0 32 -10z" />
    <glyph glyph-name="Acircumflex" unicode="&#xc2;" horiz-adv-x="918" 
d="M880 41l-4 -20q0 -13 2 -21l-169 2l-162 -2q2 8 2 21q0 9 -4 20l42 -1h26q16 2 26 3l-82 252h-280l-53 -141l-39 -113l37 -1l32 1l-3 -21l2 -20q-23 0 -67.5 2t-51.5 2q-19 0 -55 -2t-41 -2q1 3 2 12t1 10l-3 19h62q19 41 60 127q24 50 54.5 115.5t58.5 128.5
q24 54 60 137q57 134 93 220q36 -6 64 -6q24 0 40.5 2t29.5 4q37 -123 70 -216q24 -69 39 -114l142 -396l36 -3zM543 335l-116 351l-136 -351h252zM665 864l-62 11l-117 86l-124 -86l-56 -11l137 148l45 -3l45 3z" />
    <glyph glyph-name="Atilde" unicode="&#xc3;" horiz-adv-x="907" 
d="M880 41l-4 -20q0 -13 2 -21l-169 2l-162 -2q2 8 2 21q0 9 -4 20l42 -1h26q16 2 26 3l-82 252h-280l-53 -141l-39 -113l37 -1l32 1l-3 -21l2 -20q-23 0 -67.5 2t-51.5 2q-19 0 -55 -2t-41 -2q1 3 2 12t1 10l-3 19h62q19 41 60 127q24 50 54.5 115.5t58.5 128.5
q24 54 60 137q57 134 93 220q36 -6 64 -6q24 0 40.5 2t29.5 4q37 -123 70 -216q24 -69 39 -114l142 -396l36 -3zM543 335l-116 351l-136 -351h252zM696 966l-15 -21q-23 -31 -37 -43q-21 -18 -50 -22q-5 -1 -16 -1q-32 0 -93 24.5t-93 24.5q-14 0 -24.5 -10.5t-20.5 -28.5
l-14 -22q-2 3 -3 4q-4 5 -11 9.5t-23 11.5q-2 1 -7 3l17 26q38 57 91 65q4 1 12 1q28 0 76 -16t98 -33q19 0 31 8t24 25l14 22l22 -17q5 -3 15 -7q2 -1 7 -3z" />
    <glyph glyph-name="Adieresis" unicode="&#xc4;" horiz-adv-x="903" 
d="M880 41l-4 -20q0 -13 2 -21l-169 2l-162 -2q2 8 2 21q0 9 -4 20l42 -1h26q16 2 26 3l-82 252h-280l-53 -141l-39 -113l37 -1l32 1l-3 -21l2 -20q-23 0 -67.5 2t-51.5 2q-19 0 -55 -2t-41 -2q1 3 2 12t1 10l-3 19h62q19 41 60 127q24 50 54.5 115.5t58.5 128.5
q24 54 60 137q57 134 93 220q36 -6 64 -6q24 0 40.5 2t29.5 4q37 -123 70 -216q24 -69 39 -114l142 -396l36 -3zM543 335l-116 351l-136 -351h252zM654 926q0 -25 -14.5 -41.5t-43.5 -16.5q-27 0 -41 17t-14 40q0 22 16.5 37.5t40.5 15.5q56 0 56 -52zM476 926
q0 -24 -14 -41t-42 -17t-42 17t-14 40q0 22 16.5 37.5t40.5 15.5q55 0 55 -52z" />
    <glyph glyph-name="Aring" unicode="&#xc5;" horiz-adv-x="910" 
d="M880 41l-4 -20q0 -13 2 -21l-169 2l-162 -2q2 8 2 21q0 9 -4 20l42 -1h26q16 2 26 3l-82 252h-280l-53 -141l-39 -113l37 -1l32 1l-3 -21l2 -20q-23 0 -67.5 2t-51.5 2q-19 0 -55 -2t-41 -2q1 3 2 12t1 10l-3 19h62q19 41 60 127q24 50 54.5 115.5t58.5 128.5
q24 54 60 137q57 134 93 220q36 -6 64 -6q24 0 40.5 2t29.5 4q37 -123 70 -216q24 -69 39 -114l142 -396l36 -3zM543 335l-116 351l-136 -351h252zM605 961q-11 -47 -43 -71t-72 -24q-48 0 -85 32t-37 84q0 13 3 30q10 47 42 71t73 24q48 0 85 -32t37 -84q0 -13 -3 -30z
M561 982q0 36 -22.5 56t-53.5 20q-29 0 -50 -19t-21 -53q0 -36 22 -56t54 -20q29 0 50 19t21 53z" />
    <glyph glyph-name="AE" unicode="&#xc6;" horiz-adv-x="1239" 
d="M1207 0q-8 0 -54.5 2t-90.5 2q-48 0 -154 -1t-173 -1l-195 -2l2 19q0 14 -2 22h49l54 3v254h-283l-98 -141l-75 -113l37 -1h32q-8 -11 -11 -21t-3 -19q-22 0 -58 2t-60 2l-97 -4q7 10 11 22l3 18h61q41 52 101 128q45 57 90 115q74 94 101 129q65 84 108 145
q75 106 84 118q9 9 9 23q0 9 -4.5 15.5t-19 9t-31.5 2.5q2 8 2 22l-2 19q83 0 188.5 -1t185.5 -1.5t148 -1.5q67 0 92 1t53 3l-5 -80v-136l-57 -3l-6 48q-6 42 -18 71q-19 43 -45.5 48t-107.5 6.5t-111 1.5h-57v-293h13q24 0 59 1l70 2q26 2 37 7t15.5 17t9.5 44q2 20 5 40
l5 26l41 1l-3 -174l1 -145h-41l-3 30q0 22 -5 48t-12 39.5t-28 17.5t-52 4h-30h-82v-346q12 -2 18 -2q25 2 39 2h32q76 0 117.5 1.5t68.5 6.5t46 48q12 29 18 71l6 48l57 -3v-136zM642 337l-1 352l-254 -352h255z" />
    <glyph glyph-name="Ccedilla" unicode="&#xc7;" horiz-adv-x="767" 
d="M736 225l-15 -119l-8 -87l-77 -9q-59 -10 -118 -21q-36 -5 -73 -5l-13 -1l-3 -35l-1 -23l12 9q21 13 62 13q42 0 67 -19.5t25 -65.5q0 -69 -60 -90q-31 -9 -76 -9q-29 0 -46 7t-27 17t-12 30q0 14 7 23t21 9q11 0 18.5 -3.5t10 -10.5t2.5 -16.5t3 -19t14 -16.5t24 -7
q33 0 47 27q11 21 11 57q0 28 -10 45q-14 24 -44 24q-7 -1 -10 -1q-19 -2 -29 -13q-5 -6 -9 -12q-4 -1 -15 0.5t-14 9.5t-4 15t-1 16l-1 40l-16 2q-163 18 -241 86q-98 86 -98 273q0 245 109 348q91 86 280 86q49 0 110 -6t130 -12h64q-1 -6 0.5 -39t1.5 -39l2 -135l-26 3
l-22 -5l-12 49q-17 74 -70 112t-137 38q-22 0 -33 -1q-120 -11 -177 -112q-50 -89 -50 -244q0 -364 267 -364q87 0 136 38.5t67 117.5l9 39z" />
    <glyph glyph-name="Egrave" unicode="&#xc8;" horiz-adv-x="747" 
d="M707 0q-8 0 -54.5 2t-90.5 2q-48 0 -154 -1t-173 -1l-195 -2l2 19q0 14 -2 22h49l57 3v681l-57 3h-49q2 8 2 22l-2 19l195 -4h327q66 0 91.5 1t53.5 3l-5 -80v-136l-57 -3l-6 48q-6 42 -18 71q-19 43 -45.5 48t-107.5 6.5t-111 1.5h-57v-293l142 3q15 0 30 7t20 17.5
t10.5 44t6.5 39.5l5 26l41 1l-3 -174l1 -145h-41l-3 30q0 22 -5 49t-12.5 40t-26 16.5t-50.5 3.5h-33h-82v-346q12 -2 18 -2q25 2 39 2h32q76 0 117.5 1.5t68.5 6.5t46 48q12 29 18 71l6 48l57 -3v-136zM531 867q-9 0 -19 1.5t-11 1.5q-16 0 -23 -1q-49 24 -89 46
q-25 13 -50 27q-27 13 -38 27.5t-11 27.5q0 7 3 13t8 9q17 10 33 10q20 0 40 -16q21 -20 27 -26q48 -46 63 -60q33 -31 67 -60z" />
    <glyph glyph-name="Eacute" unicode="&#xc9;" horiz-adv-x="742" 
d="M707 0q-8 0 -54.5 2t-90.5 2q-48 0 -154 -1t-173 -1l-195 -2l2 19q0 14 -2 22h49l57 3v681l-57 3h-49q2 8 2 22l-2 19l195 -4h327q66 0 91.5 1t53.5 3l-5 -80v-136l-57 -3l-6 48q-6 42 -18 71q-19 43 -45.5 48t-107.5 6.5t-111 1.5h-57v-293l142 3q15 0 30 7t20 17.5
t10.5 44t6.5 39.5l5 26l41 1l-3 -174l1 -145h-41l-3 30q0 22 -5 49t-12.5 40t-26 16.5t-50.5 3.5h-33h-82v-346q12 -2 18 -2q25 2 39 2h32q76 0 117.5 1.5t68.5 6.5t46 48q12 29 18 71l6 48l57 -3v-136zM531 1016q11 -7 11 -22q0 -14 -10 -26q-13 -16 -36.5 -28t-51.5 -27
q-54 -29 -90 -47q-11 1 -16 1h-7q-6 0 -16 -1.5t-14 -1.5q53 46 83 74q35 34 47.5 46t26.5 25q21 17 41 17q15 0 32 -10z" />
    <glyph glyph-name="Ecircumflex" unicode="&#xca;" horiz-adv-x="747" 
d="M707 0q-8 0 -54.5 2t-90.5 2q-48 0 -154 -1t-173 -1l-195 -2l2 19q0 14 -2 22h49l57 3v681l-57 3h-49q2 8 2 22l-2 19l195 -4h327q66 0 91.5 1t53.5 3l-5 -80v-136l-57 -3l-6 48q-6 42 -18 71q-19 43 -45.5 48t-107.5 6.5t-111 1.5h-57v-293l142 3q15 0 30 7t20 17.5
t10.5 44t6.5 39.5l5 26l41 1l-3 -174l1 -145h-41l-3 30q0 22 -5 49t-12.5 40t-26 16.5t-50.5 3.5h-33h-82v-346q12 -2 18 -2q25 2 39 2h32q76 0 117.5 1.5t68.5 6.5t46 48q12 29 18 71l6 48l57 -3v-136zM575 864l-62 11l-117 86l-124 -86l-56 -11l137 148l45 -3l45 3z" />
    <glyph glyph-name="Edieresis" unicode="&#xcb;" horiz-adv-x="747" 
d="M707 0q-8 0 -54.5 2t-90.5 2q-48 0 -154 -1t-173 -1l-195 -2l2 19q0 14 -2 22h49l57 3v681l-57 3h-49q2 8 2 22l-2 19l195 -4h327q66 0 91.5 1t53.5 3l-5 -80v-136l-57 -3l-6 48q-6 42 -18 71q-19 43 -45.5 48t-107.5 6.5t-111 1.5h-57v-293l142 3q15 0 30 7t20 17.5
t10.5 44t6.5 39.5l5 26l41 1l-3 -174l1 -145h-41l-3 30q0 22 -5 49t-12.5 40t-26 16.5t-50.5 3.5h-33h-82v-346q12 -2 18 -2q25 2 39 2h32q76 0 117.5 1.5t68.5 6.5t46 48q12 29 18 71l6 48l57 -3v-136zM568 924q0 -25 -14.5 -41.5t-43.5 -16.5q-27 0 -41 17t-14 40
q0 22 16.5 37.5t40.5 15.5q56 0 56 -52zM390 924q0 -24 -14 -41t-42 -17t-42 17t-14 40q0 22 16.5 37.5t40.5 15.5q55 0 55 -52z" />
    <glyph glyph-name="Igrave" unicode="&#xcc;" horiz-adv-x="450" 
d="M402 0l-170 2l-197 -2q3 10 2 19q0 14 -2 22h49l57 3v681l-57 3h-49q2 8 2 22q1 9 -2 19l197 -2l170 2q-3 -11 -3 -19l3 -22h-51l-56 -3v-681l56 -3h51l-3 -22q0 -8 3 -19zM354 866q-9 0 -19 1.5t-11 1.5q-16 0 -23 -1q-49 24 -89 46q-25 13 -50 27q-27 13 -38 27.5
t-11 27.5q0 7 3 13t8 9q17 10 33 10q20 0 40 -16q21 -20 27 -26q48 -46 63 -60q33 -31 67 -60z" />
    <glyph glyph-name="Iacute" unicode="&#xcd;" horiz-adv-x="441" 
d="M402 0l-170 2l-197 -2q3 10 2 19q0 14 -2 22h49l57 3v681l-57 3h-49q2 8 2 22q1 9 -2 19l197 -2l170 2q-3 -11 -3 -19l3 -22h-51l-56 -3v-681l56 -3h51l-3 -22q0 -8 3 -19zM343 1018q11 -7 11 -22q0 -14 -10 -26q-13 -16 -36.5 -28t-51.5 -27q-54 -29 -90 -47
q-11 1 -16 1h-7q-6 0 -16 -1.5t-14 -1.5q53 46 83 74q35 34 47.5 46t26.5 25q21 17 41 17q15 0 32 -10z" />
    <glyph glyph-name="Icircumflex" unicode="&#xce;" horiz-adv-x="441" 
d="M402 0l-170 2l-197 -2q3 10 2 19q0 14 -2 22h49l57 3v681l-57 3h-49q2 8 2 22q1 9 -2 19l197 -2l170 2q-3 -11 -3 -19l3 -22h-51l-56 -3v-681l56 -3h51l-3 -22q0 -8 3 -19zM405 866l-62 11l-117 86l-124 -86l-56 -11l137 148l45 -3l45 3z" />
    <glyph glyph-name="Idieresis" unicode="&#xcf;" horiz-adv-x="441" 
d="M402 0l-170 2l-197 -2q3 10 2 19q0 14 -2 22h49l57 3v681l-57 3h-49q2 8 2 22q1 9 -2 19l197 -2l170 2q-3 -11 -3 -19l3 -22h-51l-56 -3v-681l56 -3h51l-3 -22q0 -8 3 -19zM375 922q0 -25 -14.5 -41.5t-43.5 -16.5q-27 0 -41 17t-14 40q0 22 16.5 37.5t40.5 15.5
q56 0 56 -52zM197 922q0 -24 -14 -41t-42 -17t-42 17t-14 40q0 22 16.5 37.5t40.5 15.5q55 0 55 -52z" />
    <glyph glyph-name="Ntilde" unicode="&#xd1;" horiz-adv-x="910" 
d="M878 728h-40l-54 -3q0 -67 -12 -248q-6 -91 -6 -157q0 -51 -4 -153t-4 -167h-11h-30.5t-30.5 1h-10h-29t-19 -1q-21 37 -98 155l-144 220q-100 150 -200 301q1 -14 2 -54t1 -42v-15v-14v-12v-11q0 -18 -0.5 -37t-0.5 -39v-12q0 -65 12 -243q6 -89 6 -153l49 -3h38
q-2 -8 -2 -22q-1 -9 2 -19l-94 2q-31 0 -80 -1t-80 -1q3 10 2 19q0 14 -2 22h40l54 3q0 68 10 249q5 91 5 157l3 275l-72 3h-35q2 8 2 22q1 9 -2 19q29 0 77 -1t78 -1l127 2q48 -78 73 -118q37 -60 74 -116q47 -73 85.5 -129t79.5 -114q45 -66 86 -128q0 25 1 78.5t1 87.5
q0 68 -10 244q-5 88 -5 151l-49 3h-39q2 8 2 22l-2 19l95 -2q31 0 80 1t80 1q-3 -10 -2 -19q0 -14 2 -22zM687 966l-15 -21q-23 -31 -37 -43q-21 -18 -50 -22q-5 -1 -16 -1q-32 0 -93 24.5t-93 24.5q-14 0 -24.5 -10.5t-20.5 -28.5l-14 -22q-2 3 -3 4q-4 5 -11 9.5t-23 11.5
q-2 1 -7 3l17 26q38 57 91 65q4 1 12 1q28 0 76 -16t98 -33q19 0 31 8t24 25l14 22l22 -17q5 -3 15 -7q2 -1 7 -3z" />
    <glyph glyph-name="Ograve" unicode="&#xd2;" horiz-adv-x="891" 
d="M845 416q0 -142 -37 -233q-45 -111 -151 -158q-52 -23 -112.5 -33.5t-125.5 -10.5q-74 0 -141.5 13.5t-103.5 35.5q-67 40 -99 106q-38 77 -38 246q0 125 35 206q41 95 134 144q43 24 109.5 36t142.5 12q97 0 181 -21q108 -28 159 -118q47 -84 47 -225zM678 409
q0 166 -47 243q-55 91 -189 91q-132 0 -191 -125q-45 -96 -45 -256q0 -147 44 -232q58 -111 186 -111q133 0 194 128q48 100 48 262zM579 866q-9 0 -19 1.5t-11 1.5q-16 0 -23 -1q-49 24 -89 46q-25 13 -50 27q-27 13 -38 27.5t-11 27.5q0 7 3 13t8 9q17 10 33 10
q20 0 40 -16q21 -20 27 -26q48 -46 63 -60q33 -31 67 -60z" />
    <glyph glyph-name="Oacute" unicode="&#xd3;" horiz-adv-x="882" 
d="M845 416q0 -142 -37 -233q-45 -111 -151 -158q-52 -23 -112.5 -33.5t-125.5 -10.5q-74 0 -141.5 13.5t-103.5 35.5q-67 40 -99 106q-38 77 -38 246q0 125 35 206q41 95 134 144q43 24 109.5 36t142.5 12q97 0 181 -21q108 -28 159 -118q47 -84 47 -225zM678 409
q0 166 -47 243q-55 91 -189 91q-132 0 -191 -125q-45 -96 -45 -256q0 -147 44 -232q58 -111 186 -111q133 0 194 128q48 100 48 262zM553 1018q11 -7 11 -22q0 -14 -10 -26q-13 -16 -36.5 -28t-51.5 -27q-54 -29 -90 -47q-11 1 -16 1h-7q-6 0 -16 -1.5t-14 -1.5q53 46 83 74
q35 34 47.5 46t26.5 25q21 17 41 17q15 0 32 -10z" />
    <glyph glyph-name="Ocircumflex" unicode="&#xd4;" horiz-adv-x="891" 
d="M845 416q0 -142 -37 -233q-45 -111 -151 -158q-52 -23 -112.5 -33.5t-125.5 -10.5q-74 0 -141.5 13.5t-103.5 35.5q-67 40 -99 106q-38 77 -38 246q0 125 35 206q41 95 134 144q43 24 109.5 36t142.5 12q97 0 181 -21q108 -28 159 -118q47 -84 47 -225zM678 409
q0 166 -47 243q-55 91 -189 91q-132 0 -191 -125q-45 -96 -45 -256q0 -147 44 -232q58 -111 186 -111q133 0 194 128q48 100 48 262zM635 866l-62 11l-117 86l-124 -86l-56 -11l137 148l45 -3l45 3z" />
    <glyph glyph-name="Otilde" unicode="&#xd5;" horiz-adv-x="878" 
d="M845 416q0 -142 -37 -233q-45 -111 -151 -158q-52 -23 -112.5 -33.5t-125.5 -10.5q-74 0 -141.5 13.5t-103.5 35.5q-67 40 -99 106q-38 77 -38 246q0 125 35 206q41 95 134 144q43 24 109.5 36t142.5 12q97 0 181 -21q108 -28 159 -118q47 -84 47 -225zM678 409
q0 166 -47 243q-55 91 -189 91q-132 0 -191 -125q-45 -96 -45 -256q0 -147 44 -232q58 -111 186 -111q133 0 194 128q48 100 48 262zM665 964l-15 -21q-23 -31 -37 -43q-21 -18 -50 -22q-5 -1 -16 -1q-32 0 -93 24.5t-93 24.5q-14 0 -24.5 -10.5t-20.5 -28.5l-14 -22
q-2 3 -3 4q-4 5 -11 9.5t-23 11.5q-2 1 -7 3l17 26q38 57 91 65q4 1 12 1q28 0 76 -16t98 -33q19 0 31 8t24 25l14 22l22 -17q5 -3 15 -7q2 -1 7 -3z" />
    <glyph glyph-name="Odieresis" unicode="&#xd6;" horiz-adv-x="881" 
d="M845 416q0 -142 -37 -233q-45 -111 -151 -158q-52 -23 -112.5 -33.5t-125.5 -10.5q-74 0 -141.5 13.5t-103.5 35.5q-67 40 -99 106q-38 77 -38 246q0 125 35 206q41 95 134 144q43 24 109.5 36t142.5 12q97 0 181 -21q108 -28 159 -118q47 -84 47 -225zM678 409
q0 166 -47 243q-55 91 -189 91q-132 0 -191 -125q-45 -96 -45 -256q0 -147 44 -232q58 -111 186 -111q133 0 194 128q48 100 48 262zM613 919q0 -25 -14.5 -41.5t-43.5 -16.5q-27 0 -41 17t-14 40q0 22 16.5 37.5t40.5 15.5q56 0 56 -52zM435 919q0 -24 -14 -41t-42 -17
t-42 17t-14 40q0 22 16.5 37.5t40.5 15.5q55 0 55 -52z" />
    <glyph glyph-name="Oslash" unicode="&#xd8;" horiz-adv-x="882" 
d="M845 416q0 -142 -37 -233q-45 -111 -151 -158q-50 -22 -113.5 -33.5t-125.5 -11.5q-40 0 -75.5 4t-70.5 11l-49 -99q-5 18 -16 23t-20 5q-3 0 -9 -2l46 86q-16 5 -26 9.5t-24 12.5q-67 40 -99 106q-38 77 -38 246q0 125 35 206q41 95 134 144q43 23 111.5 36t141.5 13
q82 0 161 -17l50 100q5 -7 14.5 -11t15.5 -4t14 3l-54 -99q96 -32 142 -120q43 -83 43 -217zM588 701q-51 42 -146 42q-132 0 -191 -125q-45 -96 -45 -256q0 -84 14.5 -151t50.5 -115zM678 409q0 88 -14.5 154t-46.5 108l-313 -610q51 -42 132 -42q133 0 194 128
q48 100 48 262z" />
    <glyph glyph-name="Ugrave" unicode="&#xd9;" horiz-adv-x="945" 
d="M898 728h-39l-45 -3l-22 -495q0 -74 -26 -125q-30 -59 -93 -87q-37 -17 -91 -25.5t-116 -8.5q-61 0 -118.5 8t-92.5 22q-60 22 -86.5 69t-26.5 137v505l-57 3h-49q2 8 2 22q1 9 -2 19l197 -2l170 2q-3 -11 -3 -19l3 -22h-51l-56 -3v-412q0 -139 29 -196q21 -42 80 -68
q37 -17 117 -17q43 0 82.5 7t62.5 22q50 32 67 91q11 39 11 110l1 224q0 67 -1.5 120.5t-3.5 118.5l-57 3h-49q2 8 2 22l-2 19l115 -2q28 0 74 1t74 1q-3 -11 -3 -19zM648 867q-9 0 -19 1.5t-11 1.5q-16 0 -23 -1q-49 24 -89 46q-25 13 -50 27q-27 13 -38 27.5t-11 27.5
q0 7 3 13t8 9q17 10 33 10q20 0 40 -16q21 -20 27 -26q48 -46 63 -60q33 -31 67 -60z" />
    <glyph glyph-name="Uacute" unicode="&#xda;" horiz-adv-x="936" 
d="M898 728h-39l-45 -3l-22 -495q0 -74 -26 -125q-30 -59 -93 -87q-37 -17 -91 -25.5t-116 -8.5q-61 0 -118.5 8t-92.5 22q-60 22 -86.5 69t-26.5 137v505l-57 3h-49q2 8 2 22q1 9 -2 19l197 -2l170 2q-3 -11 -3 -19l3 -22h-51l-56 -3v-412q0 -139 29 -196q21 -42 80 -68
q37 -17 117 -17q43 0 82.5 7t62.5 22q50 32 67 91q11 39 11 110l1 224q0 67 -1.5 120.5t-3.5 118.5l-57 3h-49q2 8 2 22l-2 19l115 -2q28 0 74 1t74 1q-3 -11 -3 -19zM618 1018q11 -7 11 -22q0 -14 -10 -26q-13 -16 -36.5 -28t-51.5 -27q-54 -29 -90 -47q-11 1 -16 1h-7
q-6 0 -16 -1.5t-14 -1.5q53 46 83 74q35 34 47.5 46t26.5 25q21 17 41 17q15 0 32 -10z" />
    <glyph glyph-name="Ucircumflex" unicode="&#xdb;" horiz-adv-x="936" 
d="M898 728h-39l-45 -3l-22 -495q0 -74 -26 -125q-30 -59 -93 -87q-37 -17 -91 -25.5t-116 -8.5q-61 0 -118.5 8t-92.5 22q-60 22 -86.5 69t-26.5 137v505l-57 3h-49q2 8 2 22q1 9 -2 19l197 -2l170 2q-3 -11 -3 -19l3 -22h-51l-56 -3v-412q0 -139 29 -196q21 -42 80 -68
q37 -17 117 -17q43 0 82.5 7t62.5 22q50 32 67 91q11 39 11 110l1 224q0 67 -1.5 120.5t-3.5 118.5l-57 3h-49q2 8 2 22l-2 19l115 -2q28 0 74 1t74 1q-3 -11 -3 -19zM692 864l-62 11l-117 86l-124 -86l-56 -11l137 148l45 -3l45 3z" />
    <glyph glyph-name="Udieresis" unicode="&#xdc;" horiz-adv-x="928" 
d="M898 728h-39l-45 -3l-22 -495q0 -74 -26 -125q-30 -59 -93 -87q-37 -17 -91 -25.5t-116 -8.5q-61 0 -118.5 8t-92.5 22q-60 22 -86.5 69t-26.5 137v505l-57 3h-49q2 8 2 22q1 9 -2 19l197 -2l170 2q-3 -11 -3 -19l3 -22h-51l-56 -3v-412q0 -139 29 -196q21 -42 80 -68
q37 -17 117 -17q43 0 82.5 7t62.5 22q50 32 67 91q11 39 11 110l1 224q0 67 -1.5 120.5t-3.5 118.5l-57 3h-49q2 8 2 22l-2 19l115 -2q28 0 74 1t74 1q-3 -11 -3 -19zM678 919q0 -25 -14.5 -41.5t-43.5 -16.5q-27 0 -41 17t-14 40q0 22 16.5 37.5t40.5 15.5q56 0 56 -52z
M500 919q0 -24 -14 -41t-42 -17t-42 17t-14 40q0 22 16.5 37.5t40.5 15.5q55 0 55 -52z" />
    <glyph glyph-name="germandbls" unicode="&#xdf;" horiz-adv-x="790" 
d="M760 203q0 -91 -61 -150q-56 -54 -130 -54l-203 1v38l80 1q72 0 106 35q38 40 38 133q0 95 -26 134q-36 55 -139 55l-128 -1v-399q-43 -5 -57 -9t-32 -9.5t-31 -16.5q-24 -21 -34 -27v791l-107 11v33l215 -4q71 0 182 2t112 1q76 0 114 -27q47 -34 47 -112
q0 -87 -47 -139q-51 -56 -146 -56q-7 -1 -4 -8q2 -5 4 -5q135 0 191 -48t56 -170zM549 609q-7 77 -33.5 98t-110.5 21l-108 -1v-291h101q67 0 107 35q45 39 45 114q0 16 -1 24z" />
    <glyph glyph-name="agrave" unicode="&#xe0;" horiz-adv-x="673" 
d="M652 0l-155 -13q-30 0 -45 4t-29 21q-10 11 -14 25t-4 32l-35 -33q-21 -20 -70 -36.5t-93 -16.5q-78 0 -121 35q-48 39 -48 119q0 70 33 106q27 29 91 46q22 6 131 26q63 12 90 38.5t27 70.5q0 19 -2 29q-5 35 -27 55.5t-58 20.5q-10 0 -15 -1q-51 -6 -61 -38
q-6 -34 -12 -67q-7 -19 -25.5 -26.5t-43.5 -7.5q-26 0 -42 15q-19 18 -19 49q0 33 19 54t54 35q52 20 152 20q57 0 120.5 -10t86.5 -55q18 -36 18 -104q0 -28 -2.5 -78t-2.5 -60v-71q0 -28 1 -65t12.5 -54t29.5 -26.5t39 -9.5h12zM407 320l-52 -19q-97 -34 -100 -36
q-46 -23 -59 -68q-6 -21 -6 -44q0 -40 18.5 -70t53.5 -39q14 -3 27 -3q34 0 63 17.5t42 49.5q6 15 8.5 42t2.5 68zM468 645q-9 0 -19 1.5t-11 1.5q-16 0 -23 -1q-49 24 -89 46q-25 13 -50 27q-27 13 -38 27.5t-11 27.5q0 7 3 13t8 9q17 10 33 10q20 0 40 -16q21 -20 27 -26
q48 -46 63 -60q33 -31 67 -60z" />
    <glyph glyph-name="aacute" unicode="&#xe1;" horiz-adv-x="680" 
d="M652 0l-155 -13q-30 0 -45 4t-29 21q-10 11 -14 25t-4 32l-35 -33q-21 -20 -70 -36.5t-93 -16.5q-78 0 -121 35q-48 39 -48 119q0 70 33 106q27 29 91 46q22 6 131 26q63 12 90 38.5t27 70.5q0 19 -2 29q-5 35 -27 55.5t-58 20.5q-10 0 -15 -1q-51 -6 -61 -38
q-6 -34 -12 -67q-7 -19 -25.5 -26.5t-43.5 -7.5q-26 0 -42 15q-19 18 -19 49q0 33 19 54t54 35q52 20 152 20q57 0 120.5 -10t86.5 -55q18 -36 18 -104q0 -28 -2.5 -78t-2.5 -60v-71q0 -28 1 -65t12.5 -54t29.5 -26.5t39 -9.5h12zM407 320l-52 -19q-97 -34 -100 -36
q-46 -23 -59 -68q-6 -21 -6 -44q0 -40 18.5 -70t53.5 -39q14 -3 27 -3q34 0 63 17.5t42 49.5q6 15 8.5 42t2.5 68zM445 804q11 -7 11 -22q0 -14 -10 -26q-13 -16 -36.5 -28t-51.5 -27q-54 -29 -90 -47q-11 1 -16 1h-7q-6 0 -16 -1.5t-14 -1.5q53 46 83 74q35 34 47.5 46
t26.5 25q21 17 41 17q15 0 32 -10z" />
    <glyph glyph-name="acircumflex" unicode="&#xe2;" horiz-adv-x="681" 
d="M518 648l-62 11l-117 86l-124 -86l-56 -11l137 148l45 -3l45 3zM652 0l-155 -13q-30 0 -45 4t-29 21q-10 11 -14 25t-4 32l-35 -33q-21 -20 -70 -36.5t-93 -16.5q-78 0 -121 35q-48 39 -48 119q0 70 33 106q27 29 91 46q22 6 131 26q63 12 90 38.5t27 70.5q0 19 -2 29
q-5 35 -27 55.5t-58 20.5q-10 0 -15 -1q-51 -6 -61 -38q-6 -34 -12 -67q-7 -19 -25.5 -26.5t-43.5 -7.5q-26 0 -42 15q-19 18 -19 49q0 33 19 54t54 35q52 20 152 20q57 0 120.5 -10t86.5 -55q18 -36 18 -104q0 -28 -2.5 -78t-2.5 -60v-71q0 -28 1 -65t12.5 -54t29.5 -26.5
t39 -9.5h12zM407 320l-52 -19q-97 -34 -100 -36q-46 -23 -59 -68q-6 -21 -6 -44q0 -40 18.5 -70t53.5 -39q14 -3 27 -3q34 0 63 17.5t42 49.5q6 15 8.5 42t2.5 68z" />
    <glyph glyph-name="atilde" unicode="&#xe3;" horiz-adv-x="677" 
d="M652 0l-155 -13q-30 0 -45 4t-29 21q-10 11 -14 25t-4 32l-35 -33q-21 -20 -70 -36.5t-93 -16.5q-78 0 -121 35q-48 39 -48 119q0 70 33 106q27 29 91 46q22 6 131 26q63 12 90 38.5t27 70.5q0 19 -2 29q-5 35 -27 55.5t-58 20.5q-10 0 -15 -1q-51 -6 -61 -38
q-6 -34 -12 -67q-7 -19 -25.5 -26.5t-43.5 -7.5q-26 0 -42 15q-19 18 -19 49q0 33 19 54t54 35q52 20 152 20q57 0 120.5 -10t86.5 -55q18 -36 18 -104q0 -28 -2.5 -78t-2.5 -60v-71q0 -28 1 -65t12.5 -54t29.5 -26.5t39 -9.5h12zM407 320l-52 -19q-97 -34 -100 -36
q-46 -23 -59 -68q-6 -21 -6 -44q0 -40 18.5 -70t53.5 -39q14 -3 27 -3q34 0 63 17.5t42 49.5q6 15 8.5 42t2.5 68zM563 747l-15 -21q-23 -31 -37 -43q-21 -18 -50 -22q-5 -1 -16 -1q-32 0 -93 24.5t-93 24.5q-14 0 -24.5 -10.5t-20.5 -28.5l-14 -22q-2 3 -3 4q-4 5 -11 9.5
t-23 11.5q-2 1 -7 3l17 26q38 57 91 65q4 1 12 1q28 0 76 -16t98 -33q19 0 31 8t24 25l14 22l22 -17q5 -3 15 -7q2 -1 7 -3z" />
    <glyph glyph-name="adieresis" unicode="&#xe4;" horiz-adv-x="673" 
d="M652 0l-155 -13q-30 0 -45 4t-29 21q-10 11 -14 25t-4 32l-35 -33q-21 -20 -70 -36.5t-93 -16.5q-78 0 -121 35q-48 39 -48 119q0 70 33 106q27 29 91 46q22 6 131 26q63 12 90 38.5t27 70.5q0 19 -2 29q-5 35 -27 55.5t-58 20.5q-10 0 -15 -1q-51 -6 -61 -38
q-6 -34 -12 -67q-7 -19 -25.5 -26.5t-43.5 -7.5q-26 0 -42 15q-19 18 -19 49q0 33 19 54t54 35q52 20 152 20q57 0 120.5 -10t86.5 -55q18 -36 18 -104q0 -28 -2.5 -78t-2.5 -60v-71q0 -28 1 -65t12.5 -54t29.5 -26.5t39 -9.5h12zM407 320l-52 -19q-97 -34 -100 -36
q-46 -23 -59 -68q-6 -21 -6 -44q0 -40 18.5 -70t53.5 -39q14 -3 27 -3q34 0 63 17.5t42 49.5q6 15 8.5 42t2.5 68zM497 709q0 -25 -14.5 -41.5t-43.5 -16.5q-27 0 -41 17t-14 40q0 22 16.5 37.5t40.5 15.5q56 0 56 -52zM319 709q0 -24 -14 -41t-42 -17t-42 17t-14 40
q0 22 16.5 37.5t40.5 15.5q55 0 55 -52z" />
    <glyph glyph-name="aring" unicode="&#xe5;" horiz-adv-x="674" 
d="M652 0l-155 -13q-30 0 -45 4t-29 21q-10 11 -14 25t-4 32l-35 -33q-21 -20 -70 -36.5t-93 -16.5q-78 0 -121 35q-48 39 -48 119q0 70 33 106q27 29 91 46q22 6 131 26q63 12 90 38.5t27 70.5q0 19 -2 29q-5 35 -27 55.5t-58 20.5q-10 0 -15 -1q-51 -6 -61 -38
q-6 -34 -12 -67q-7 -19 -25.5 -26.5t-43.5 -7.5q-26 0 -42 15q-19 18 -19 49q0 33 19 54t54 35q52 20 152 20q57 0 120.5 -10t86.5 -55q18 -36 18 -104q0 -28 -2.5 -78t-2.5 -60v-71q0 -28 1 -65t12.5 -54t29.5 -26.5t39 -9.5h12zM407 320l-52 -19q-97 -34 -100 -36
q-46 -23 -59 -68q-6 -21 -6 -44q0 -40 18.5 -70t53.5 -39q14 -3 27 -3q34 0 63 17.5t42 49.5q6 15 8.5 42t2.5 68zM472 742q-11 -47 -43 -71t-72 -24q-48 0 -85 32t-37 84q0 13 3 30q10 47 42 71t73 24q48 0 85 -32t37 -84q0 -13 -3 -30zM428 763q0 36 -22.5 56t-53.5 20
q-29 0 -50 -19t-21 -53q0 -36 22 -56t54 -20q29 0 50 19t21 53z" />
    <glyph glyph-name="ae" unicode="&#xe6;" horiz-adv-x="1011" 
d="M981 294l-419 -2q0 -128 35 -191q40 -72 128 -72q58 0 91.5 17.5t54.5 59.5q9 18 14.5 37t7.5 26.5t10.5 11.5t24.5 4q28 0 37 -10q3 -3 3 -16q0 -43 -33 -84q-47 -59 -145 -80q-5 -1 -32.5 -4t-55.5 -3q-89 0 -157 17q-88 22 -123 70l-47 -42q-18 -17 -74 -33.5
t-101 -16.5q-78 0 -121 35q-48 39 -48 119q0 70 33 106q27 29 91 46q22 6 131 26q63 12 90 38.5t27 70.5q0 19 -2 29q-5 35 -27 55.5t-58 20.5q-10 0 -15 -1q-51 -6 -61 -38q-6 -34 -12 -67q-7 -19 -25.5 -26.5t-43.5 -7.5q-26 0 -42 15q-19 18 -19 49q0 33 19 54t54 35
q52 20 152 20q57 0 127 -10q33 -6 53 -22q23 18 56 30q23 8 63.5 12.5t83.5 4.5q96 0 144 -12q81 -23 110 -101q21 -56 21 -170zM840 337l-1 33q0 64 -14.5 101.5t-46 52.5t-83.5 15q-75 0 -108 -73q-24 -53 -24 -130zM400 320l-52 -19q-97 -34 -100 -36q-46 -23 -59 -68
q-6 -21 -6 -44q0 -40 18.5 -70t53.5 -39q14 -3 27 -3q34 0 63 17.5t42 49.5q6 15 8.5 42t2.5 68z" />
    <glyph glyph-name="ccedilla" unicode="&#xe7;" horiz-adv-x="627" 
d="M594 439q1 -5 1 -15q0 -29 -15 -44t-30 -17t-23 -2q-23 0 -40.5 10.5t-22.5 37t-10 58.5q-24 68 -102 68q-16 0 -24 -1q-77 -8 -109 -84q-26 -61 -26 -172q0 -127 38.5 -190.5t124.5 -63.5q63 0 98 15t57 59q9 17 11.5 39t4 33t11 13t20.5 2q19 0 23.5 -5.5t4.5 -18.5
t-4.5 -30.5t-10.5 -30.5q-36 -90 -151 -109q-30 -5 -49 -6t-26 -2l-20 -2l-3 -49l12 9q21 13 62 13q43 0 68 -19.5t25 -65.5q0 -69 -61 -90q-31 -9 -76 -9q-29 0 -46 7t-26 16q-12 12 -12 31q-1 12 6.5 22t20.5 10q12 0 18.5 -3t9.5 -10t3 -17t3 -17q8 -26 38 -26
q33 0 47 27q11 21 11 57q0 28 -10 45q-14 24 -44 24q-6 -1 -9 -1q-14 -1 -23 -9t-16 -16q-7 -2 -16.5 1t-10.5 7q-3 9 -3 64h-4q-35 0 -55.5 5t-68.5 26q-71 29 -102 96q-27 59 -27 163q0 107 31 171q37 77 122 107q27 9 67.5 13.5t87.5 4.5q99 0 137 -12q49 -16 76 -41
q33 -31 37 -76z" />
    <glyph glyph-name="egrave" unicode="&#xe8;" horiz-adv-x="641" 
d="M609 285h-419q0 -128 35 -191q40 -72 128 -72q58 0 91.5 17.5t54.5 59.5q9 18 14.5 37t7.5 26.5t10.5 11.5t24.5 4q28 0 37 -10q3 -3 3 -16q0 -43 -33 -84q-47 -59 -145 -80q-36 -7 -81 -7q-52 0 -95.5 8t-78.5 23q-72 29 -101 91.5t-29 165.5q0 107 32 174
q38 80 122 110q23 8 63.5 12.5t83.5 4.5q96 0 144 -12q81 -23 110 -102q21 -57 21 -171zM468 330l-1 33q0 64 -14.5 101.5t-46 52.5t-83.5 15q-75 0 -108 -73q-24 -53 -24 -130zM470 651q-9 0 -19 1.5t-11 1.5q-16 0 -23 -1q-49 24 -89 46q-25 13 -50 27q-27 13 -38 27.5
t-11 27.5q0 7 3 13t8 9q17 10 33 10q20 0 40 -16q21 -20 27 -26q48 -46 63 -60q33 -31 67 -60z" />
    <glyph glyph-name="eacute" unicode="&#xe9;" horiz-adv-x="648" 
d="M622 285h-419q0 -128 35 -191q40 -72 128 -72q58 0 91.5 17.5t54.5 59.5q9 18 14.5 37t7.5 26.5t10.5 11.5t24.5 4q28 0 37 -10q3 -3 3 -16q0 -43 -33 -84q-47 -59 -145 -80q-36 -7 -81 -7q-52 0 -95.5 8t-78.5 23q-72 29 -101 91.5t-29 165.5q0 107 32 174
q38 80 122 110q23 8 63.5 12.5t83.5 4.5q96 0 144 -12q81 -23 110 -102q21 -57 21 -171zM481 330l-1 33q0 64 -14.5 101.5t-46 52.5t-83.5 15q-75 0 -108 -73q-24 -53 -24 -130zM464 803q11 -7 11 -22q0 -14 -10 -26q-13 -16 -36.5 -28t-51.5 -27q-54 -29 -90 -47
q-11 1 -16 1h-7q-6 0 -16 -1.5t-14 -1.5q53 46 83 74q35 34 47.5 46t26.5 25q21 17 41 17q15 0 32 -10z" />
    <glyph glyph-name="ecircumflex" unicode="&#xea;" horiz-adv-x="641" 
d="M609 285h-419q0 -128 35 -191q40 -72 128 -72q58 0 91.5 17.5t54.5 59.5q9 18 14.5 37t7.5 26.5t10.5 11.5t24.5 4q28 0 37 -10q3 -3 3 -16q0 -43 -33 -84q-47 -59 -145 -80q-36 -7 -81 -7q-52 0 -95.5 8t-78.5 23q-72 29 -101 91.5t-29 165.5q0 107 32 174
q38 80 122 110q23 8 63.5 12.5t83.5 4.5q96 0 144 -12q81 -23 110 -102q21 -57 21 -171zM468 330l-1 33q0 64 -14.5 101.5t-46 52.5t-83.5 15q-75 0 -108 -73q-24 -53 -24 -130zM546 651l-62 11l-117 86l-124 -86l-56 -11l137 148l45 -3l45 3z" />
    <glyph glyph-name="edieresis" unicode="&#xeb;" horiz-adv-x="641" 
d="M609 285h-419q0 -128 35 -191q40 -72 128 -72q58 0 91.5 17.5t54.5 59.5q9 18 14.5 37t7.5 26.5t10.5 11.5t24.5 4q28 0 37 -10q3 -3 3 -16q0 -43 -33 -84q-47 -59 -145 -80q-36 -7 -81 -7q-52 0 -95.5 8t-78.5 23q-72 29 -101 91.5t-29 165.5q0 107 32 174
q38 80 122 110q23 8 63.5 12.5t83.5 4.5q96 0 144 -12q81 -23 110 -102q21 -57 21 -171zM468 330l-1 33q0 64 -14.5 101.5t-46 52.5t-83.5 15q-75 0 -108 -73q-24 -53 -24 -130zM507 708q0 -25 -14.5 -41.5t-43.5 -16.5q-27 0 -41 17t-14 40q0 22 16.5 37.5t40.5 15.5
q56 0 56 -52zM329 708q0 -24 -14 -41t-42 -17t-42 17t-14 40q0 22 16.5 37.5t40.5 15.5q55 0 55 -52z" />
    <glyph glyph-name="igrave" unicode="&#xec;" horiz-adv-x="382" 
d="M345 0l-141 2q-32 0 -84 -1t-84 -1q1 6 3 13l-3 22l37 1l48 3v473l-43 3l-42 4l1 17l-1 18q23 0 61 -1t62 -1l106 2v-516l30 -2q12 0 24.5 -0.5t25.5 -0.5l-3 -22q2 -8 3 -13zM330 645q-9 0 -19 1.5t-11 1.5q-16 0 -23 -1q-49 24 -89 46q-25 13 -50 27q-27 13 -38 27.5
t-11 27.5q0 7 3 13t8 9q17 10 33 10q20 0 40 -16q21 -20 27 -26q48 -46 63 -60q33 -31 67 -60z" />
    <glyph glyph-name="iacute" unicode="&#xed;" horiz-adv-x="385" 
d="M348 0l-141 2q-33 0 -84.5 -1t-82.5 -1q2 10 2 13q0 14 -2 22l36 1l49 3v473l-44 3l-42 4l2 17l-1 18q23 0 61 -1t62 -1l105 2v-516l30 -2q12 0 24.5 -0.5t25.5 -0.5q-2 -8 -2 -22q0 -3 2 -13zM321 803q11 -7 11 -22q0 -14 -10 -26q-13 -16 -36.5 -28t-51.5 -27
q-54 -29 -90 -47q-11 1 -16 1h-7q-6 0 -16 -1.5t-14 -1.5q53 46 83 74q35 34 47.5 46t26.5 25q21 17 41 17q15 0 32 -10z" />
    <glyph glyph-name="icircumflex" unicode="&#xee;" horiz-adv-x="422" 
d="M366 0l-141 2q-32 0 -84 -1t-84 -1q2 11 2 13q0 14 -2 22l36 1l49 3v473l-44 3l-42 4l2 17l-1 18q23 0 62 -1t64 -1l102 2v-516l30 -2q12 0 25 -0.5t26 -0.5q-1 -3 -2 -8t-1 -14q0 -5 3 -13zM387 652l-62 11l-117 86l-124 -86l-56 -11l137 148l45 -3l45 3z" />
    <glyph glyph-name="idieresis" unicode="&#xef;" horiz-adv-x="390" 
d="M351 0l-141 2q-33 0 -84.5 -1t-82.5 -1q2 10 2 13q0 14 -2 22l36 1l49 3v473l-44 3l-42 4l2 17l-1 18q23 0 61 -1t62 -1l105 2v-516l30 -2q12 0 24.5 -0.5t25.5 -0.5q-2 -8 -2 -22q0 -3 2 -13zM350 709q0 -25 -14.5 -41.5t-43.5 -16.5q-27 0 -41 17t-14 40
q0 22 16.5 37.5t40.5 15.5q56 0 56 -52zM172 709q0 -24 -14 -41t-42 -17t-42 17t-14 40q0 22 16.5 37.5t40.5 15.5q55 0 55 -52z" />
    <glyph glyph-name="ntilde" unicode="&#xf1;" horiz-adv-x="816" 
d="M790 0l-141 2q-32 0 -84 -1t-84 -1q2 11 2 13q0 14 -2 22l36 1l49 3v282q0 64 -14 107q-17 52 -56 72q-29 15 -70 15q-33 0 -61 -8t-45 -22q-54 -45 -54 -129v-318l30 -2q12 0 24.5 -0.5t25.5 -0.5l-3 -22q2 -8 3 -13l-141 2q-32 0 -84 -1t-84 -1q1 6 3 13l-3 22l37 1
l48 3v473l-43 3l-42 4l1 17l-1 18q23 0 61 -1t62 -1l106 2v-83q26 42 67 64q28 15 70.5 25.5t90.5 10.5q49 0 91.5 -10.5t71 -35.5t40.5 -59.5t12 -88.5v-339l30 -2l51 -1q-1 -3 -2 -8t-1 -14q0 -5 3 -13zM630 747l-15 -21q-23 -31 -37 -43q-21 -18 -50 -22q-5 -1 -16 -1
q-32 0 -93 24.5t-93 24.5q-14 0 -24.5 -10.5t-20.5 -28.5l-14 -22q-2 3 -3 4q-4 5 -11 9.5t-23 11.5q-2 1 -7 3l17 26q38 57 91 65q4 1 12 1q28 0 76 -16t98 -33q19 0 31 8t24 25l14 22l22 -17q5 -3 15 -7q2 -1 7 -3z" />
    <glyph glyph-name="ograve" unicode="&#xf2;" horiz-adv-x="719" 
d="M708 329q0 -128 -27 -197q-32 -81 -110 -117q-35 -16 -85 -24t-111 -8q-69 0 -149 13t-125 91q-41 70 -41 179q0 101 26 160q31 72 110 109q28 14 85.5 22t126.5 8q87 0 154 -16.5t106.5 -76t39.5 -143.5zM551 283q0 124 -29 175q-38 68 -144 68q-93 0 -132 -89
q-30 -68 -30 -187q0 -107 28 -159q38 -71 134 -71q100 0 140 72q33 60 33 191zM527 645q-9 0 -19 1.5t-11 1.5q-16 0 -23 -1q-49 24 -89 46q-25 13 -50 27q-27 13 -38 27.5t-11 27.5q0 7 3 13t8 9q17 10 33 10q20 0 40 -16q21 -20 27 -26q48 -46 63 -60q33 -31 67 -60z" />
    <glyph glyph-name="oacute" unicode="&#xf3;" horiz-adv-x="724" 
d="M708 329q0 -128 -27 -197q-32 -81 -110 -117q-35 -16 -85 -24t-111 -8q-69 0 -149 13t-125 91q-41 70 -41 179q0 101 26 160q31 72 110 109q28 14 85.5 22t126.5 8q87 0 154 -16.5t106.5 -76t39.5 -143.5zM551 283q0 124 -29 175q-38 68 -144 68q-93 0 -132 -89
q-30 -68 -30 -187q0 -107 28 -159q38 -71 134 -71q100 0 140 72q33 60 33 191zM515 797q11 -7 11 -22q0 -14 -10 -26q-13 -16 -36.5 -28t-51.5 -27q-54 -29 -90 -47q-11 1 -16 1h-7q-6 0 -16 -1.5t-14 -1.5q53 46 83 74q35 34 47.5 46t26.5 25q21 17 41 17q15 0 32 -10z" />
    <glyph glyph-name="ocircumflex" unicode="&#xf4;" horiz-adv-x="709" 
d="M563 651l-62 11l-117 86l-124 -86l-56 -11l137 148l45 -3l45 3zM680 329q0 -128 -27 -197q-32 -81 -110 -117q-35 -16 -85 -24t-111 -8q-69 0 -149 13t-125 91q-41 70 -41 179q0 101 26 160q31 72 110 109q28 14 85.5 22t126.5 8q87 0 154 -16.5t106.5 -76t39.5 -143.5z
M523 283q0 124 -29 175q-38 68 -144 68q-93 0 -132 -89q-30 -68 -30 -187q0 -107 28 -159q38 -71 134 -71q100 0 140 72q33 60 33 191z" />
    <glyph glyph-name="otilde" unicode="&#xf5;" horiz-adv-x="716" 
d="M708 329q0 -128 -27 -197q-32 -81 -110 -117q-35 -16 -85 -24t-111 -8q-69 0 -149 13t-125 91q-41 70 -41 179q0 101 26 160q31 72 110 109q28 14 85.5 22t126.5 8q87 0 154 -16.5t106.5 -76t39.5 -143.5zM551 283q0 124 -29 175q-38 68 -144 68q-93 0 -132 -89
q-30 -68 -30 -187q0 -107 28 -159q38 -71 134 -71q100 0 140 72q33 60 33 191zM591 750l-15 -21q-23 -31 -37 -43q-21 -18 -50 -22q-5 -1 -16 -1q-32 0 -93 24.5t-93 24.5q-14 0 -24.5 -10.5t-20.5 -28.5l-14 -22q-2 3 -3 4q-4 5 -11 9.5t-23 11.5q-2 1 -7 3l17 26
q38 57 91 65q4 1 12 1q28 0 76 -16t98 -33q19 0 31 8t24 25l14 22l22 -17q5 -3 15 -7q2 -1 7 -3z" />
    <glyph glyph-name="odieresis" unicode="&#xf6;" horiz-adv-x="713" 
d="M680 329q0 -128 -27 -197q-32 -81 -110 -117q-35 -16 -85 -24t-111 -8q-69 0 -149 13t-125 91q-41 70 -41 179q0 101 26 160q31 72 110 109q28 14 85.5 22t126.5 8q87 0 154 -16.5t106.5 -76t39.5 -143.5zM523 283q0 124 -29 175q-38 68 -144 68q-93 0 -132 -89
q-30 -68 -30 -187q0 -107 28 -159q38 -71 134 -71q100 0 140 72q33 60 33 191zM520 706q0 -25 -14.5 -41.5t-43.5 -16.5q-27 0 -41 17t-14 40q0 22 16.5 37.5t40.5 15.5q56 0 56 -52zM342 706q0 -24 -14 -41t-42 -17t-42 17t-14 40q0 22 16.5 37.5t40.5 15.5q55 0 55 -52z
" />
    <glyph glyph-name="divide" unicode="&#xf7;" horiz-adv-x="728" 
d="M357 374q-33 0 -51.5 20.5t-18.5 48.5q0 29 18.5 49.5t51.5 20.5q32 0 51 -21t19 -49t-18 -48.5t-52 -20.5zM690 235h-653v74h652zM357 32q-33 0 -51 20t-18 49t18 49.5t51 20.5q32 0 51 -21t19 -49t-18 -48.5t-52 -20.5z" />
    <glyph glyph-name="oslash" unicode="&#xf8;" horiz-adv-x="721" 
d="M690 329q0 -128 -27 -197q-32 -81 -110 -117q-35 -16 -84 -24t-109 -8q-62 0 -127 9l-46 -90q-3 13 -14.5 18t-20.5 1l44 78q-78 21 -118 97q-36 69 -36 170t26 160q31 72 110 109q28 14 85 22t126 8q58 0 112 -8l39 76q4 -6 13 -9q2 -1 4 -1q4 -1 7 -1q7 0 11 2l-41 -73
l5 -1q72 -18 111.5 -77.5t39.5 -143.5zM470 500q-18 14 -45 20t-65 6q-93 0 -132 -89q-30 -68 -30 -187q0 -56 9 -100.5t31 -75.5zM533 283q0 70 -8 117t-32 78l-230 -429q37 -29 97 -29q100 0 140 72q33 60 33 191z" />
    <glyph glyph-name="ugrave" unicode="&#xf9;" horiz-adv-x="827" 
d="M797 0l-119 2l-106 -2v92q-31 -43 -71 -67q-29 -18 -70.5 -29.5t-96.5 -11.5q-48 0 -87 10t-67 33q-31 26 -41.5 57t-10.5 93v330l-30 3l-63 5q2 8 2 22q0 4 -2 12l154 3l83 2v-321q0 -89 19 -129q16 -34 51 -50q15 -7 35.5 -11t36.5 -4q64 0 109 38q49 41 49 104v329
l-30 2l-64 3q1 3 2 11q0 5 1 11q0 6 -3 12l155 3l83 2v-512q10 -2 20.5 -4t21.5 -2t21 -0.5t18 -0.5l-1 -17zM554 645q-9 0 -19 1.5t-11 1.5q-16 0 -23 -1q-49 24 -89 46q-25 13 -50 27q-27 13 -38 27.5t-11 27.5q0 7 3 13t8 9q17 10 33 10q20 0 40 -16q21 -20 27 -26
q48 -46 63 -60q33 -31 67 -60z" />
    <glyph glyph-name="uacute" unicode="&#xfa;" horiz-adv-x="835" 
d="M797 0l-119 2l-106 -2v92q-31 -43 -71 -67q-29 -18 -70.5 -29.5t-96.5 -11.5q-48 0 -87 10t-67 33q-31 26 -41.5 57t-10.5 93v330l-30 3l-63 5q2 8 2 22q0 4 -2 12l154 3l83 2v-321q0 -89 19 -129q16 -34 51 -50q15 -7 35.5 -11t36.5 -4q64 0 109 38q49 41 49 104v329
l-30 2l-64 3q1 3 2 11q0 5 1 11q0 6 -3 12l155 3l83 2v-512q10 -2 20.5 -4t21.5 -2t21 -0.5t18 -0.5l-1 -17zM532 801q11 -7 11 -22q0 -14 -10 -26q-13 -16 -36.5 -28t-51.5 -27q-54 -29 -90 -47q-11 1 -16 1h-7q-6 0 -16 -1.5t-14 -1.5q53 46 83 74q35 34 47.5 46t26.5 25
q21 17 41 17q15 0 32 -10z" />
    <glyph glyph-name="ucircumflex" unicode="&#xfb;" horiz-adv-x="827" 
d="M797 0l-119 2l-106 -2v92q-31 -43 -71 -67q-29 -18 -70.5 -29.5t-96.5 -11.5q-48 0 -87 10t-67 33q-31 26 -41.5 57t-10.5 93v330l-30 3l-63 5q2 8 2 22q0 4 -2 12l154 3l83 2v-321q0 -89 19 -129q16 -34 51 -50q15 -7 35.5 -11t36.5 -4q64 0 109 38q49 41 49 104v329
l-30 2l-64 3q1 3 2 11q0 5 1 11q0 6 -3 12l155 3l83 2v-512q10 -2 20.5 -4t21.5 -2t21 -0.5t18 -0.5l-1 -17zM630 650l-62 11l-117 86l-124 -86l-56 -11l137 148l45 -3l45 3z" />
    <glyph glyph-name="udieresis" unicode="&#xfc;" horiz-adv-x="824" 
d="M797 0l-119 2l-106 -2v92q-31 -43 -71 -67q-29 -18 -70.5 -29.5t-96.5 -11.5q-48 0 -87 10t-67 33q-31 26 -41.5 57t-10.5 93v330l-30 3l-63 5q2 8 2 22q0 4 -2 12l154 3l83 2v-321q0 -89 19 -129q16 -34 51 -50q15 -7 35.5 -11t36.5 -4q64 0 109 38q49 41 49 104v329
l-30 2l-64 3q1 3 2 11q0 5 1 11q0 6 -3 12l155 3l83 2v-512q10 -2 20.5 -4t21.5 -2t21 -0.5t18 -0.5l-1 -17zM569 707q0 -25 -14.5 -41.5t-43.5 -16.5q-27 0 -41 17t-14 40q0 22 16.5 37.5t40.5 15.5q56 0 56 -52zM391 707q0 -24 -14 -41t-42 -17t-42 17t-14 40
q0 22 16.5 37.5t40.5 15.5q55 0 55 -52z" />
    <glyph glyph-name="ydieresis" unicode="&#xff;" horiz-adv-x="727" 
d="M677 520l-18 -2l-35 -3l-104 -225q-67 -140 -134 -279q-27 -56 -49 -99q-26 -50 -53 -97q-36 -64 -82 -89q-38 -21 -92 -21q-45 0 -77 24.5t-32 65.5q-3 34 18.5 58.5t57.5 24.5q24 0 39 -8t24 -29q3 -7 3 -20v-15v-11q2 -15 7.5 -22.5t22.5 -7.5q36 0 75 60
q10 15 63 119l28 54q-14 9 -26 9q-8 0 -19.5 -2.5t-20.5 -4.5q-22 66 -59 162q-28 72 -43 110q-47 121 -93 243l-30 2l-35 2q1 3 2 11q0 5 1 11q0 5 -3 13l136 -2l145 2q-2 -10 -2 -13q0 -14 2 -22l-29 -1h-18q-11 -2 -19 -3q18 -57 42 -118.5t48 -122.5l72 -177l4 18
q43 104 78 197q11 28 38 104t35 100l-39 2l-35 1q1 3 2 11q0 5 1 11q0 5 -3 13q22 0 51.5 -0.5t66.5 -1.5l88 3q-2 -10 -2 -13q0 -14 2 -22zM554 709q0 -25 -14.5 -41.5t-43.5 -16.5q-27 0 -41 17t-14 40q0 22 16.5 37.5t40.5 15.5q56 0 56 -52zM376 709q0 -24 -14 -41
t-42 -17t-42 17t-14 40q0 22 16.5 37.5t40.5 15.5q55 0 55 -52z" />
    <glyph glyph-name="OE" unicode="&#x152;" horiz-adv-x="1245" 
d="M1199 0q-8 0 -55 2t-90 2q-48 0 -154 -1t-173 -1l-138 -2q-25 -6 -76 -12t-103 -6q-70 0 -131.5 11t-104.5 37q-67 40 -99 106q-38 77 -38 246q0 125 35 206q41 95 134 144q52 28 110 39t126 11q48 0 109 -5q146 -12 176 -12h327q66 0 91.5 1t53.5 3l-5 -80v-68t1 -68
l-58 -3l-6 48q-6 42 -18 71q-19 43 -45.5 48t-107.5 6.5t-111 1.5h-57v-293l142 3q15 0 30.5 7t19.5 16t8.5 33.5t9.5 51.5l4 26l41 1l-3 -174l1 -145h-40l-3 30q-4 37 -6 48q-5 27 -12.5 40.5t-26 17t-50.5 3.5h-33h-82v-346q12 -2 18 -2q25 2 39 2h32q77 0 118 1t68 6.5
t46 48.5q12 29 18 71l6 48l58 -3v-19v-15v-13q0 -19 -0.5 -38t-0.5 -39v-12zM638 167v473q-35 52 -68 73q-47 30 -128 30q-132 0 -191 -125q-45 -96 -45 -256q0 -147 44 -232q58 -111 186 -111q76 0 127 40q46 36 75 108z" />
    <glyph glyph-name="oe" unicode="&#x153;" horiz-adv-x="1132" 
d="M1101 287l-419 -2q0 -128 35 -191q40 -72 128 -72q58 0 91.5 17.5t54.5 59.5q9 18 14.5 37t7.5 26.5t10.5 11.5t24.5 4q28 0 37 -10q3 -3 3 -16q0 -43 -33 -84q-47 -59 -145 -80q-36 -7 -81 -7q-52 0 -95.5 8t-77.5 22.5t-61 36.5q-20 -19 -53.5 -34t-83.5 -23t-111 -8
q-69 0 -149 13t-125 91q-41 70 -41 179q0 101 26 160q31 72 110 109q28 14 85.5 22t126.5 8q87 0 149 -15q43 -10 77 -39q33 28 73 42q23 8 63.5 12.5t83.5 4.5q96 0 144 -12q81 -23 110 -101q21 -56 21 -170zM960 330l-1 33q0 64 -14.5 101.5t-46 52.5t-83.5 15
q-75 0 -108 -73q-24 -53 -24 -130zM523 283q0 124 -29 175q-38 68 -144 68q-93 0 -132 -89q-30 -68 -30 -187q0 -107 28 -159q38 -71 134 -71q100 0 140 72q33 60 33 191z" />
    <glyph glyph-name="Ydieresis" unicode="&#x178;" horiz-adv-x="846" 
d="M804 728h-64q-73 -124 -139 -244q-19 -36 -56 -105q-33 -63 -55 -107v-228l56 -3h68q-2 -8 -2 -22l2 -19l-188 2l-205 -2l2 19q0 14 -2 22h58l57 3v200l-143 312l-84 170l-37 3l-38 -1q4 16 4 20l-1 21l173 -2l164 2l-2 -21l4 -20l-42 1h-24q-8 -3 -13 -3
q42 -103 85 -205q17 -36 49 -114q15 -36 30 -71l8 -22l5 17q35 68 64 129q23 47 39 82q21 46 43 92q17 37 41 92l-24 3q-10 0 -20.5 -0.5t-20.5 -0.5q4 16 4 21l-2 20q25 0 72.5 -2t54.5 -2l79 4q-1 -3 -2 -12t-1 -10zM604 924q0 -25 -14.5 -41.5t-43.5 -16.5q-27 0 -41 17
t-14 40q0 22 16.5 37.5t40.5 15.5q56 0 56 -52zM426 924q0 -24 -14 -41t-42 -17t-42 17t-14 40q0 22 16.5 37.5t40.5 15.5q55 0 55 -52z" />
    <glyph glyph-name="florin" unicode="&#x192;" horiz-adv-x="415" 
d="M412 809q-14 -40 -56 -40q-9 0 -18 8q-13 12 -17 14q-6 3 -10 3q-24 0 -36 -119q-8 -78 -15 -107l-6 -21h106l-6 -44h-111l-65 -321q-24 -120 -58 -200q-55 -129 -126 -129q-12 0 -24 3.5t-21.5 15t-9.5 24.5q0 4 2 10q6 18 18.5 28.5t30.5 10.5q15 0 22.5 -14t14.5 -16
q34 -10 58 106q15 80 21 113l74 370h-116l2 44h131l6 29q23 116 57 186q45 95 103 95q18 0 34.5 -12.5t16.5 -27.5q0 -3 -2 -9z" />
    <glyph glyph-name="summation" unicode="&#x3a3;" horiz-adv-x="788" 
d="M761 112q-12 -35 -19 -62t-14 -69t-9 -62t-2 -44l-76 15h-613l380 418l-374 466l70 -6h581l1 -171h-23q0 31 -8.5 52t-30 40.5t-44 24.5t-61.5 5h-314l302 -363l-323 -363h431q34 0 71 26q26 20 38.5 41.5t12.5 51.5h24z" />
    <glyph glyph-name="Omega" unicode="&#x3a9;" horiz-adv-x="827" 
d="M789 -2h-314l16 156q75 34 111.5 99t36.5 152q0 110 -41 165q-53 70 -182 70q-120 0 -178 -70q-50 -60 -50 -165q0 -89 36 -153t113 -98l15 -156h-314v164h20q0 -22 10 -37q18 -27 56 -27h172v32q-102 18 -166 95t-64 182q0 124 97 194.5t251 70.5q161 0 254 -69.5
t93 -195.5q0 -105 -63 -182t-167 -95v-32h172q38 0 56 27q10 15 10 37h20v-164z" />
    <glyph glyph-name="pi" unicode="&#x3c0;" horiz-adv-x="658" 
d="M625 175l-3 -25q-9 -65 -48.5 -110.5t-99.5 -45.5q-53 5 -78 57q-21 44 -21 114q0 27 3 51l26 245h-134l-46 -363q-4 -42 -23 -73q-22 -37 -53 -37q-10 0 -15 2q-20 5 -31.5 14t-14.5 20.5t-3 23.5q0 21 17 41q51 58 53 64q6 14 12 29t8 28l26 247h-37h-14
q-10 0 -18.5 -0.5t-24 -7t-35.5 -29.5q-16 -19 -19 -30l-20 7l7 17q27 60 34 72q21 34 56.5 51.5t73.5 17.5h414v-94h-150l-15 -274q0 -38 20 -67.5t54 -29.5q28 0 46.5 18t25.5 48l4 19h23z" />
    <glyph glyph-name="endash" unicode="&#x2013;" horiz-adv-x="647" 
d="M615 322l-1 -44v-29.5v-19.5q0 -14 -1 -15q-55 1 -120 1.5t-75 0.5h-38.5h-21.5l-320 -1l1 57l-3 52q59 0 141.5 -1t158.5 -2z" />
    <glyph glyph-name="emdash" unicode="&#x2014;" horiz-adv-x="848" 
d="M813 319l-2 -45v-41.5v-22.5q-82 1 -184 1.5t-115 0.5h-53.5h-25.5h-396q2 18 2 32v25l-4 51l376 -2z" />
    <glyph glyph-name="quoteleft" unicode="&#x2018;" horiz-adv-x="251" 
d="M221 847l-17 -16q-20 -19 -40 -37q-30 -31 -35 -47.5t-5 -31.5q0 -9 3 -32t3 -39q0 -32 -1 -37q-6 -31 -38 -31q-29 0 -38 5.5t-12.5 24t-3.5 42.5q0 13 0.5 23t4 30.5t16.5 35.5q14 13 22 21q23 24 51.5 50.5t42.5 36.5l19 15z" />
    <glyph glyph-name="quoteright" unicode="&#x2019;" horiz-adv-x="223" 
d="M191 734q-4 -20 -10 -30t-25 -31q-25 -27 -41.5 -43t-39.5 -37l-18 -15l-24 12l14 15q23 23 41 51q15 23 17 36.5t2 20.5q0 9 -4 39.5t-4 42.5q-1 18 -1 26q0 19 8.5 28.5t34.5 12.5q19 3 33 -6t17 -26.5t3 -53.5q0 -22 -3 -42z" />
    <glyph glyph-name="quotesinglbase" unicode="&#x201a;" horiz-adv-x="223" 
d="M191 19q-4 -20 -10 -30t-25 -31q-25 -27 -41.5 -43t-39.5 -37l-18 -15l-24 12l14 15q23 23 41 51q15 23 17 36.5t2 20.5q0 9 -4 39.5t-4 42.5q-1 18 -1 26q0 19 8.5 28.5t34.5 12.5q19 3 33 -6t17 -26.5t3 -53.5q0 -22 -3 -42z" />
    <glyph glyph-name="quotedblleft" unicode="&#x201c;" horiz-adv-x="392" 
d="M222 852l-17 -15l-40 -38q-30 -31 -35 -47.5t-5 -31.5q0 -9 3 -32t3 -38q0 -32 -1 -37q-6 -31 -38 -31q-29 0 -38 5.5t-11.5 18.5t-3.5 22t-1 25q0 13 0.5 23t3.5 27t7.5 24.5t31.5 36.5q23 24 50 49.5t44 37.5l19 14zM359 852l-14 -14q-23 -23 -39.5 -48.5t-18.5 -39
t-2 -20.5q0 -9 4 -39.5t4 -42.5v-14t1 -13q0 -21 -6 -29q-9 -12 -33 -12q-48 0 -52.5 25.5t-4.5 61.5q0 22 3.5 42t9.5 30t25 31q44 48 81 79l18 16z" />
    <glyph glyph-name="quotedblright" unicode="&#x201d;" horiz-adv-x="388" 
d="M350 742q-3 -15 -7.5 -22.5t-31.5 -36.5q-23 -24 -49 -48t-45 -39l-19 -14l-28 13l16 15q34 32 40 38q30 31 35 48.5t5 32.5q0 10 -2.5 34t-2.5 34q0 32 1 37q6 31 44 31q17 0 29 -5t15 -22t3 -49q0 -26 -3 -47zM191 736q-5 -28 -36 -60q-12 -13 -35 -36.5t-46 -43.5
l-17 -16l-24 13l14 15q14 16 31 38q23 32 27 50q1 6 1 18t-2 28q-5 39 -5 55q-1 20 -1 28q0 20 8.5 30t36.5 10q41 0 46 -29.5t5 -57.5q0 -22 -3 -42z" />
    <glyph glyph-name="quotedblbase" unicode="&#x201e;" horiz-adv-x="388" 
d="M350 22q-3 -15 -7.5 -22.5t-31.5 -36.5q-23 -24 -49 -48t-45 -39l-19 -14l-28 13l16 15q34 32 40 38q30 31 35 48.5t5 32.5q0 10 -2.5 34t-2.5 34q0 32 1 37q6 31 44 31q17 0 29 -5t15 -22t3 -49q0 -26 -3 -47zM191 16q-5 -28 -36 -60q-12 -13 -35 -36.5t-46 -43.5
l-17 -16l-24 13l14 15q14 16 31 38q23 32 27 50q1 6 1 18t-2 28q-5 39 -5 55q-1 20 -1 28q0 20 8.5 30t36.5 10q41 0 46 -29.5t5 -57.5q0 -22 -3 -42z" />
    <glyph glyph-name="dagger" unicode="&#x2020;" horiz-adv-x="545" 
d="M514 432h-6l-96 8l-89 3h-7v-12v-191q0 -59 3.5 -133.5t5.5 -91.5v-13h-7l-41 1l-41 -1h-9v13q2 18 5.5 91.5t3.5 133.5v191v12h-6l-90 -3l-96 -8h-5v4q1 5 1.5 12.5t0.5 26.5l-2 41v4h5q22 -3 49 -5.5t45 -2.5h89h7v15l-3 96l-10 136l-1 11l7 -1l52 -1l46 1l7 1v-11
q-4 -26 -6 -52q-5 -49 -5 -84l-3 -96v-15h7h89q28 0 53 3t41 5h6v-4l-3 -41q0 -20 1 -27t2 -12v-4z" />
    <glyph glyph-name="bullet" unicode="&#x2022;" horiz-adv-x="323" 
d="M294 376q0 -65 -39 -99q-35 -31 -93 -31q-56 0 -89 31t-33 85q0 55 33.5 89.5t90.5 34.5q58 0 94 -29t36 -81z" />
    <glyph glyph-name="ellipsis" unicode="&#x2026;" horiz-adv-x="777" 
d="M210 81q0 -37 -23.5 -60.5t-64.5 -23.5q-40 0 -62 21t-22 60q0 36 22.5 58.5t61.5 22.5q42 0 65 -18.5t23 -59.5zM480 81q0 -37 -23.5 -60.5t-64.5 -23.5q-40 0 -62 21t-22 60q0 36 22.5 58.5t61.5 22.5q42 0 65 -18.5t23 -59.5zM741 81q0 -37 -23.5 -60.5t-64.5 -23.5
q-40 0 -62 21t-22 60q0 36 22.5 58.5t61.5 22.5q42 0 65 -18.5t23 -59.5z" />
    <glyph glyph-name="trademark" unicode="&#x2122;" horiz-adv-x="893" 
d="M351 771l-4 -89h-15l-5 34q0 11 -6 18t-14 7l-86 1v-304q0 -14 5.5 -20t14.5 -7.5t17 -1.5l12 -1v-16h-8l-67 3l-68 -3h-9v16l16 1q6 0 13.5 1t14.5 8t7 20v304l-85 -3q-9 -1 -11 -3q-6 -9 -6 -15l-6 -40h-16l-4 89h10q16 0 74 -1t72 -1l144 2zM862 753h-7q-9 0 -20.5 -1
t-16.5 -6q-8 -11 -8 -25v-283q0 -13 8 -21q4 -5 13 -6.5t17 -1.5l13 -1v-16h-9l-67 3l-68 -3h-9v16l15 1q7 0 14.5 1t14.5 8t7 20v264l-149 -316h-11l-149 315v-263q0 -13 6.5 -20t16 -8t15.5 -1l13 -1v-16h-9h-16q-50 3 -51 3l-45 -3h-9v16l15 1q7 0 14.5 1t14 8t6.5 20
v283q0 16 -5.5 22.5t-17.5 8t-21 1.5h-6v17h9l37 -3q16 0 28.5 1t23.5 2h6l142 -302l56 115l44 88q10 20 23 50l15 39l4 10h7l46 -3l44 3h6v-17z" />
    <glyph glyph-name="partialdiff" unicode="&#x2202;" horiz-adv-x="553" 
d="M513 416q0 -161 -67 -291q-75 -146 -191 -146q-11 0 -17 1q-95 10 -147.5 67.5t-52.5 143.5q0 95 61 164.5t152 69.5q41 0 68.5 -11t66.5 -39l32 -23l9 54q4 30 4.5 43t0.5 21q0 109 -45 185q-51 86 -140 86q-27 0 -52.5 -8.5t-51.5 -17.5l-19 -6l-41 50l46 13
q54 16 100 16q129 0 210 -118q74 -108 74 -254zM410 313l-29 28q-30 29 -70 38q-14 3 -25 3q-53 0 -92.5 -43t-56.5 -106q-9 -35 -9 -70q0 -54 23 -95.5t70 -55.5q17 -5 29 -5q57 0 97 75q31 58 47 148z" />
    <glyph glyph-name="Delta" unicode="&#x2206;" horiz-adv-x="769" 
d="M736 0h-699l373 783zM598 51l-231 546l-257 -546h488z" />
    <glyph glyph-name="product" unicode="&#x220f;" horiz-adv-x="905" 
d="M872 -110h-334v20l28 1q29 0 39.5 4t20.5 13.5t13.5 21t3.5 26.5q-1 17 -1 26v706h-391v-700q0 -30 5 -48.5t23 -32.5q13 -10 26 -12.5t36 -2.5h21v-22h-334v23h26q22 0 34 2.5t25 12.5q18 13 21 29t3 52v637q0 46 -34 76q-13 10 -25.5 16.5t-26.5 7.5l-18 1v22h839v-23
l-23 -1q-19 0 -32 -8q-7 -4 -18 -14q-22 -17 -28.5 -37.5t-6.5 -55.5v-630q0 -27 4 -42t18 -28.5t27.5 -17.5t34.5 -4l24 -1v-17z" />
    <glyph glyph-name="radical" unicode="&#x221a;" horiz-adv-x="564" 
d="M534 858l-148 -908l-242 479l-92 -47l-15 32l142 67l195 -383l126 764z" />
    <glyph glyph-name="infinity" unicode="&#x221e;" horiz-adv-x="852" 
d="M824 278q0 -77 -48.5 -124.5t-113.5 -47.5q-42 0 -90.5 20t-88.5 57l-51 48l-51 -48q-40 -37 -88 -57t-91 -20q-65 0 -112 46q-50 49 -50 126q0 65 49 111t116 46q42 0 82 -18.5t81 -55.5l64 -57l64 57q39 35 80.5 54.5t82.5 19.5q68 0 116.5 -45.5t48.5 -111.5zM767 273
q0 44 -33 73t-79 29q-38 0 -72 -20q-10 -6 -40 -28l-76 -57l71 -65q26 -25 52.5 -35t63.5 -10q52 0 82.5 32.5t30.5 80.5zM397 270l-76 57q-34 25 -52 34q-29 14 -60 14q-47 0 -79.5 -28.5t-32.5 -73.5q0 -49 31 -81t82 -32q36 0 62.5 10t53.5 35z" />
    <glyph glyph-name="integral" unicode="&#x222b;" horiz-adv-x="343" 
d="M306 845q-2 -17 -15 -28t-31 -11q-10 0 -21 8q-15 11 -20 13q-13 6 -19 -7.5t-6 -42.5q0 -32 4 -75q11 -117 11 -137v-331q0 -125 -16 -202q-26 -128 -93 -128q-11 0 -24.5 4t-27.5 18.5t-12 30.5t13.5 27.5t27.5 11.5q14 0 25.5 -14t17.5 -16q18 -5 24.5 20.5t6.5 74.5
q0 32 -1 63t-2 61v460q0 137 28 197q24 52 70 52q25 0 44 -13.5t16 -35.5z" />
    <glyph glyph-name="approxequal" unicode="&#x2248;" horiz-adv-x="698" 
d="M669 411l-23 -26q-31 -35 -65.5 -51.5t-79.5 -16.5q-30 0 -59 9t-58 19l-96 26q-20 5 -40 10.5t-37 5.5h-11q-8 -2 -12 -2q-47 -9 -84 -49l-20 -20l-49 32l16 17q30 32 61 49t74 24q18 3 33 3q21 0 45 -5q9 -2 49 -13l84 -26q35 -12 54.5 -17.5t47.5 -5.5q37 3 58.5 11.5
t44.5 32.5l20 22zM669 226l-23 -27q-31 -35 -65 -51.5t-80 -16.5q-30 0 -59 9t-58 19l-96 27q-19 5 -38.5 10.5t-36.5 5.5q-11 0 -25 -3q-46 -9 -84 -48l-20 -21l-49 32l16 18q30 31 61.5 48.5t62.5 22t47 4.5q20 0 42 -5t49 -13l84 -25q25 -8 50 -15.5t52 -7.5q60 0 103 44
l20 22z" />
    <glyph glyph-name="notequal" unicode="&#x2260;" horiz-adv-x="630" 
d="M596 141h-324l-96 -179l-53 32l81 147h-169v57h199l86 153h-285v59h315l99 181l54 -27l-84 -154h177v-59h-210l-83 -153h293v-57z" />
    <glyph glyph-name="lessequal" unicode="&#x2264;" horiz-adv-x="502" 
d="M467 105l-430 197v48l430 205v-53l-367 -179l367 -169v-49zM467 -1h-430v48h430v-48z" />
    <glyph glyph-name="greaterequal" unicode="&#x2265;" horiz-adv-x="493" 
d="M465 302l-430 -197v49l367 169l-367 179v53l430 -205v-48zM465 -1h-430v48h430v-48z" />
    <glyph glyph-name="lozenge" unicode="&#x25ca;" horiz-adv-x="533" 
d="M503 386l-199 -387h-66l-203 392l203 374h66zM443 386l-173 323l-173 -320l175 -342z" />
    </font>
</defs>
</svg>
